<svg width="84" height="160" viewBox="0 0 84 160" fill="none" xmlns="http://www.w3.org/2000/svg">
<path d="M48.5717 32.627L43.6234 44H40.9427L45.8998 33.2598H39.5365V31.2031H48.5717V32.627ZM50.5844 37.707L51.3226 31.2031H58.4945V33.3213H53.4056L53.0892 36.0723C53.6927 35.75 54.3344 35.5889 55.014 35.5889C56.2328 35.5889 57.1879 35.9668 57.8793 36.7227C58.5707 37.4785 58.9164 38.5361 58.9164 39.8955C58.9164 40.7217 58.7406 41.4629 58.389 42.1191C58.0433 42.7695 57.5453 43.2764 56.8949 43.6396C56.2445 43.9971 55.4769 44.1758 54.5922 44.1758C53.8187 44.1758 53.101 44.0205 52.4388 43.71C51.7767 43.3936 51.2523 42.9512 50.8656 42.3828C50.4847 41.8145 50.2826 41.167 50.2592 40.4404H52.7728C52.8256 40.9736 53.0101 41.3896 53.3265 41.6885C53.6488 41.9814 54.0677 42.1279 54.5834 42.1279C55.1576 42.1279 55.6 41.9229 55.9105 41.5127C56.2211 41.0967 56.3763 40.5107 56.3763 39.7549C56.3763 39.0283 56.1976 38.4717 55.8402 38.085C55.4828 37.6982 54.976 37.5049 54.3197 37.5049C53.7162 37.5049 53.2269 37.6631 52.8519 37.9795L52.6058 38.208L50.5844 37.707ZM60.5072 33.6641C60.5072 32.8789 60.7621 32.2432 61.2719 31.7568C61.7816 31.2646 62.4496 31.0186 63.2758 31.0186C64.1136 31.0186 64.7875 31.2617 65.2972 31.748C65.807 32.2285 66.0619 32.8818 66.0619 33.708V34.3408C66.0619 35.1318 65.807 35.7676 65.2972 36.248C64.7875 36.7285 64.1195 36.9688 63.2933 36.9688C62.4613 36.9688 61.7875 36.7285 61.2719 36.248C60.7621 35.7617 60.5072 35.1084 60.5072 34.2881V33.6641ZM62.1947 34.3408C62.1947 34.6924 62.2943 34.9766 62.4935 35.1934C62.6986 35.4043 62.9652 35.5098 63.2933 35.5098C63.6215 35.5098 63.8822 35.4014 64.0756 35.1846C64.2689 34.9678 64.3656 34.6777 64.3656 34.3145V33.6641C64.3656 33.3125 64.2689 33.0283 64.0756 32.8115C63.8822 32.5947 63.6156 32.4863 63.2758 32.4863C62.9535 32.4863 62.6927 32.5947 62.4935 32.8115C62.2943 33.0225 62.1947 33.3184 62.1947 33.6992V34.3408ZM66.6244 40.8623C66.6244 40.0713 66.8822 39.4355 67.3978 38.9551C67.9135 38.4688 68.5814 38.2256 69.4017 38.2256C70.2338 38.2256 70.9047 38.4658 71.4144 38.9463C71.9301 39.4209 72.1879 40.0771 72.1879 40.915V41.5479C72.1879 42.333 71.9359 42.9688 71.432 43.4551C70.9281 43.9355 70.2572 44.1758 69.4193 44.1758C68.5756 44.1758 67.8988 43.9326 67.389 43.4463C66.8793 42.96 66.6244 42.3154 66.6244 41.5127V40.8623ZM68.3119 41.5479C68.3119 41.8701 68.4174 42.1455 68.6283 42.374C68.8392 42.6025 69.1029 42.7168 69.4193 42.7168C70.1342 42.7168 70.4916 42.3213 70.4916 41.5303V40.8623C70.4916 40.5107 70.392 40.2295 70.1927 40.0186C69.9935 39.8018 69.7299 39.6934 69.4017 39.6934C69.0736 39.6934 68.8099 39.8018 68.6107 40.0186C68.4115 40.2295 68.3119 40.5195 68.3119 40.8887V41.5479ZM63.7943 43.042L62.5551 42.374L68.8041 32.3721L70.0433 33.04L63.7943 43.042Z" fill="black"/>
<rect width="14" height="37" transform="matrix(-1 0 0 1 14 123)" fill="#FF2727"/>
<rect width="14" height="36" transform="matrix(-1 0 0 1 14 82)" fill="#E2CC00"/>
<rect width="14" height="36" transform="matrix(-1 0 0 1 14 41)" fill="#00CE08"/>
<rect width="14" height="36" transform="matrix(-1 0 0 1 14 0)" fill="#00CE08"/>
<path d="M19 38L34 46.6603V29.3398L19 38Z" fill="#1CA1C0"/>
</svg>
