<svg width="522" height="185" viewBox="0 0 522 185" fill="none" xmlns="http://www.w3.org/2000/svg">
<mask id="path-1-outside-1" maskUnits="userSpaceOnUse" x="0" y="0" width="522" height="170" fill="black">
<rect fill="white" width="522" height="170"/>
<path fill-rule="evenodd" clip-rule="evenodd" d="M5 5H133H261H389H517V115L471.286 165H434.714L389 115L343.286 165H306.714L261 115L215.286 165H178.714L133 115L87.2857 165H50.7143L5 115V5Z"/>
</mask>
<path d="M5 5V0H0V5H5ZM517 5H522V0H517V5ZM517 115L520.69 118.374L522 116.941V115H517ZM471.286 165V170H473.489L474.976 168.374L471.286 165ZM434.714 165L431.024 168.374L432.511 170H434.714V165ZM389 115L392.69 111.626L389 107.59L385.31 111.626L389 115ZM343.286 165V170H345.489L346.976 168.374L343.286 165ZM306.714 165L303.024 168.374L304.511 170H306.714V165ZM261 115L264.69 111.626L261 107.59L257.31 111.626L261 115ZM215.286 165V170H217.489L218.976 168.374L215.286 165ZM178.714 165L175.024 168.374L176.511 170H178.714V165ZM133 115L136.69 111.626L133 107.59L129.31 111.626L133 115ZM87.2857 165V170H89.4891L90.9759 168.374L87.2857 165ZM50.7143 165L47.0241 168.374L48.5109 170H50.7143V165ZM5 115H0V116.941L1.30986 118.374L5 115ZM133 0H5V10H133V0ZM261 0H133V10H261V0ZM389 0H261V10H389V0ZM517 0H389V10H517V0ZM522 115V5H512V115H522ZM474.976 168.374L520.69 118.374L513.31 111.626L467.596 161.626L474.976 168.374ZM434.714 170H471.286V160H434.714V170ZM385.31 118.374L431.024 168.374L438.404 161.626L392.69 111.626L385.31 118.374ZM346.976 168.374L392.69 118.374L385.31 111.626L339.596 161.626L346.976 168.374ZM306.714 170H343.286V160H306.714V170ZM257.31 118.374L303.024 168.374L310.404 161.626L264.69 111.626L257.31 118.374ZM218.976 168.374L264.69 118.374L257.31 111.626L211.596 161.626L218.976 168.374ZM178.714 170H215.286V160H178.714V170ZM129.31 118.374L175.024 168.374L182.404 161.626L136.69 111.626L129.31 118.374ZM90.9759 168.374L136.69 118.374L129.31 111.626L83.5956 161.626L90.9759 168.374ZM50.7143 170H87.2857V160H50.7143V170ZM1.30986 118.374L47.0241 168.374L54.4044 161.626L8.69014 111.626L1.30986 118.374ZM0 5V115H10V5H0Z" fill="black" mask="url(#path-1-outside-1)"/>
<path d="M5 115L133 115" stroke="#FF2727" stroke-width="4"/>
<path d="M59.8536 125L54 130.854L63.1464 140L54 149.146L59.8536 155L69 145.854L78.1462 155L84 149.146L74.8536 140L83.9999 130.854L78.1462 125L69 134.146L59.8536 125Z" fill="#FF2727"/>
<rect x="14" y="65" width="110" height="40" fill="white"/>
<path d="M33.1211 81.624C33.1211 80.9222 32.8561 80.3636 32.3262 79.9482C31.7962 79.5329 31.0765 79.3252 30.167 79.3252C29.3864 79.3252 28.7347 79.5329 28.2119 79.9482C27.6891 80.3564 27.4277 80.8864 27.4277 81.5381H24.7207C24.7207 80.6859 24.957 79.9268 25.4297 79.2607C25.9023 78.5947 26.5576 78.0791 27.3955 77.7139C28.2334 77.3415 29.1572 77.1553 30.167 77.1553C31.9574 77.1553 33.3467 77.5456 34.335 78.3262C35.3304 79.1068 35.8281 80.1989 35.8281 81.6025C35.8281 82.3115 35.6133 82.9632 35.1836 83.5576C34.7539 84.152 34.1523 84.6211 33.3789 84.9648C34.2526 85.2656 34.9186 85.724 35.377 86.3398C35.8424 86.9486 36.0752 87.7077 36.0752 88.6172C36.0752 90.0208 35.5381 91.138 34.4639 91.9688C33.3896 92.7923 31.9574 93.2041 30.167 93.2041C29.0641 93.2041 28.0651 93.0072 27.1699 92.6133C26.2819 92.2194 25.6123 91.6823 25.1611 91.002C24.7171 90.3216 24.4951 89.541 24.4951 88.6602H27.2021C27.2021 89.3333 27.4814 89.9027 28.04 90.3682C28.5986 90.8265 29.3076 91.0557 30.167 91.0557C31.1266 91.0557 31.8965 90.8301 32.4766 90.3789C33.0638 89.9277 33.3574 89.3405 33.3574 88.6172C33.3574 87.7363 33.0996 87.099 32.584 86.7051C32.0755 86.304 31.3271 86.1035 30.3389 86.1035H28.502V83.9551H30.2422C32.1615 83.9551 33.1211 83.1781 33.1211 81.624ZM45.292 93C45.1774 92.778 45.0771 92.4163 44.9912 91.915C44.1605 92.7816 43.1436 93.2148 41.9404 93.2148C40.7731 93.2148 39.8206 92.8818 39.083 92.2158C38.3454 91.5498 37.9766 90.7262 37.9766 89.7451C37.9766 88.5062 38.4349 87.5573 39.3516 86.8984C40.2754 86.2324 41.5931 85.8994 43.3047 85.8994H44.9053V85.1367C44.9053 84.5352 44.737 84.0553 44.4004 83.6973C44.0638 83.332 43.5518 83.1494 42.8643 83.1494C42.2699 83.1494 41.7829 83.2998 41.4033 83.6006C41.0238 83.8942 40.834 84.2702 40.834 84.7285H38.2236C38.2236 84.0911 38.4349 83.4967 38.8574 82.9453C39.2799 82.3867 39.8529 81.9499 40.5762 81.6348C41.3066 81.3197 42.1195 81.1621 43.0146 81.1621C44.3753 81.1621 45.4603 81.5059 46.2695 82.1934C47.0788 82.8737 47.4941 83.8333 47.5156 85.0723V90.3145C47.5156 91.36 47.6624 92.1943 47.9561 92.8174V93H45.292ZM42.4238 91.1201C42.9395 91.1201 43.4229 90.9948 43.874 90.7441C44.3324 90.4935 44.6761 90.1569 44.9053 89.7344V87.543H43.498C42.5312 87.543 41.8044 87.7113 41.3174 88.0479C40.8304 88.3844 40.5869 88.8607 40.5869 89.4766C40.5869 89.9779 40.7516 90.3789 41.0811 90.6797C41.4176 90.9733 41.8652 91.1201 42.4238 91.1201ZM54.3799 88.4023H53.0586V93H50.4482V81.377H53.0586V86.0176H54.208L57.4199 81.377H60.6426L56.4424 86.9414L60.9971 93H57.6025L54.3799 88.4023ZM72.6094 87.3066C72.6094 89.1042 72.2012 90.54 71.3848 91.6143C70.5684 92.6813 69.4727 93.2148 68.0977 93.2148C66.8229 93.2148 65.8024 92.7959 65.0361 91.958V97.4688H62.4258V81.377H64.832L64.9395 82.5586C65.7057 81.6276 66.7477 81.1621 68.0654 81.1621C69.4834 81.1621 70.5934 81.6921 71.3955 82.752C72.2048 83.8047 72.6094 85.2692 72.6094 87.1455V87.3066ZM70.0098 87.0811C70.0098 85.9209 69.777 85.0007 69.3115 84.3203C68.8532 83.64 68.1943 83.2998 67.335 83.2998C66.2679 83.2998 65.5016 83.7402 65.0361 84.6211V89.7773C65.5088 90.6797 66.2822 91.1309 67.3564 91.1309C68.1872 91.1309 68.8353 90.7979 69.3008 90.1318C69.7734 89.4587 70.0098 88.4417 70.0098 87.0811ZM77.6367 85.0723H80.1934C81.1458 85.0723 81.9766 85.237 82.6855 85.5664C83.3945 85.8958 83.9316 86.3577 84.2969 86.9521C84.6693 87.5465 84.8555 88.2376 84.8555 89.0254C84.8555 90.2214 84.4329 91.181 83.5879 91.9043C82.7428 92.6276 81.6185 92.9928 80.2148 93H75.0264V81.377H77.6367V85.0723ZM89.3994 93H86.7891V81.377H89.3994V93ZM77.6367 87.167V90.916H80.1826C80.82 90.916 81.3213 90.7585 81.6865 90.4434C82.0589 90.1211 82.2451 89.6663 82.2451 89.0791C82.2451 88.4919 82.0625 88.0299 81.6973 87.6934C81.3392 87.3496 80.8522 87.1742 80.2363 87.167H77.6367ZM101.678 83.4502H97.9072V93H95.2969V83.4502H91.5693V81.377H101.678V83.4502ZM102.612 87.0811C102.612 85.9424 102.838 84.9183 103.289 84.0088C103.74 83.0921 104.374 82.3903 105.19 81.9033C106.007 81.4092 106.945 81.1621 108.005 81.1621C109.573 81.1621 110.844 81.667 111.818 82.6768C112.799 83.6865 113.329 85.0257 113.408 86.6943L113.419 87.3066C113.419 88.4525 113.197 89.4766 112.753 90.3789C112.316 91.2812 111.686 91.9795 110.862 92.4736C110.046 92.9678 109.101 93.2148 108.026 93.2148C106.386 93.2148 105.072 92.6706 104.084 91.582C103.103 90.4863 102.612 89.029 102.612 87.21V87.0811ZM105.223 87.3066C105.223 88.5026 105.47 89.4408 105.964 90.1211C106.458 90.7943 107.146 91.1309 108.026 91.1309C108.907 91.1309 109.591 90.7871 110.078 90.0996C110.572 89.4121 110.819 88.4059 110.819 87.0811C110.819 85.9066 110.565 84.9756 110.057 84.2881C109.555 83.6006 108.871 83.2568 108.005 83.2568C107.153 83.2568 106.476 83.597 105.975 84.2773C105.473 84.9505 105.223 85.9603 105.223 87.3066Z" fill="#FF2727"/>
<path d="M133 115L261 115" stroke="#FF2727" stroke-width="4"/>
<path d="M187.854 125L182 130.854L191.146 140L182 149.146L187.854 155L197 145.854L206.146 155L212 149.146L202.854 140L212 130.854L206.146 125L197 134.146L187.854 125Z" fill="#FF2727"/>
<rect x="142" y="65" width="110" height="40" fill="white"/>
<path d="M161.121 81.624C161.121 80.9222 160.856 80.3636 160.326 79.9482C159.796 79.5329 159.076 79.3252 158.167 79.3252C157.386 79.3252 156.735 79.5329 156.212 79.9482C155.689 80.3564 155.428 80.8864 155.428 81.5381H152.721C152.721 80.6859 152.957 79.9268 153.43 79.2607C153.902 78.5947 154.558 78.0791 155.396 77.7139C156.233 77.3415 157.157 77.1553 158.167 77.1553C159.957 77.1553 161.347 77.5456 162.335 78.3262C163.33 79.1068 163.828 80.1989 163.828 81.6025C163.828 82.3115 163.613 82.9632 163.184 83.5576C162.754 84.152 162.152 84.6211 161.379 84.9648C162.253 85.2656 162.919 85.724 163.377 86.3398C163.842 86.9486 164.075 87.7077 164.075 88.6172C164.075 90.0208 163.538 91.138 162.464 91.9688C161.39 92.7923 159.957 93.2041 158.167 93.2041C157.064 93.2041 156.065 93.0072 155.17 92.6133C154.282 92.2194 153.612 91.6823 153.161 91.002C152.717 90.3216 152.495 89.541 152.495 88.6602H155.202C155.202 89.3333 155.481 89.9027 156.04 90.3682C156.599 90.8265 157.308 91.0557 158.167 91.0557C159.127 91.0557 159.896 90.8301 160.477 90.3789C161.064 89.9277 161.357 89.3405 161.357 88.6172C161.357 87.7363 161.1 87.099 160.584 86.7051C160.076 86.304 159.327 86.1035 158.339 86.1035H156.502V83.9551H158.242C160.161 83.9551 161.121 83.1781 161.121 81.624ZM173.292 93C173.177 92.778 173.077 92.4163 172.991 91.915C172.16 92.7816 171.144 93.2148 169.94 93.2148C168.773 93.2148 167.821 92.8818 167.083 92.2158C166.345 91.5498 165.977 90.7262 165.977 89.7451C165.977 88.5062 166.435 87.5573 167.352 86.8984C168.275 86.2324 169.593 85.8994 171.305 85.8994H172.905V85.1367C172.905 84.5352 172.737 84.0553 172.4 83.6973C172.064 83.332 171.552 83.1494 170.864 83.1494C170.27 83.1494 169.783 83.2998 169.403 83.6006C169.024 83.8942 168.834 84.2702 168.834 84.7285H166.224C166.224 84.0911 166.435 83.4967 166.857 82.9453C167.28 82.3867 167.853 81.9499 168.576 81.6348C169.307 81.3197 170.119 81.1621 171.015 81.1621C172.375 81.1621 173.46 81.5059 174.27 82.1934C175.079 82.8737 175.494 83.8333 175.516 85.0723V90.3145C175.516 91.36 175.662 92.1943 175.956 92.8174V93H173.292ZM170.424 91.1201C170.939 91.1201 171.423 90.9948 171.874 90.7441C172.332 90.4935 172.676 90.1569 172.905 89.7344V87.543H171.498C170.531 87.543 169.804 87.7113 169.317 88.0479C168.83 88.3844 168.587 88.8607 168.587 89.4766C168.587 89.9779 168.752 90.3789 169.081 90.6797C169.418 90.9733 169.865 91.1201 170.424 91.1201ZM182.38 88.4023H181.059V93H178.448V81.377H181.059V86.0176H182.208L185.42 81.377H188.643L184.442 86.9414L188.997 93H185.603L182.38 88.4023ZM200.609 87.3066C200.609 89.1042 200.201 90.54 199.385 91.6143C198.568 92.6813 197.473 93.2148 196.098 93.2148C194.823 93.2148 193.802 92.7959 193.036 91.958V97.4688H190.426V81.377H192.832L192.939 82.5586C193.706 81.6276 194.748 81.1621 196.065 81.1621C197.483 81.1621 198.593 81.6921 199.396 82.752C200.205 83.8047 200.609 85.2692 200.609 87.1455V87.3066ZM198.01 87.0811C198.01 85.9209 197.777 85.0007 197.312 84.3203C196.853 83.64 196.194 83.2998 195.335 83.2998C194.268 83.2998 193.502 83.7402 193.036 84.6211V89.7773C193.509 90.6797 194.282 91.1309 195.356 91.1309C196.187 91.1309 196.835 90.7979 197.301 90.1318C197.773 89.4587 198.01 88.4417 198.01 87.0811ZM205.637 85.0723H208.193C209.146 85.0723 209.977 85.237 210.686 85.5664C211.395 85.8958 211.932 86.3577 212.297 86.9521C212.669 87.5465 212.855 88.2376 212.855 89.0254C212.855 90.2214 212.433 91.181 211.588 91.9043C210.743 92.6276 209.618 92.9928 208.215 93H203.026V81.377H205.637V85.0723ZM217.399 93H214.789V81.377H217.399V93ZM205.637 87.167V90.916H208.183C208.82 90.916 209.321 90.7585 209.687 90.4434C210.059 90.1211 210.245 89.6663 210.245 89.0791C210.245 88.4919 210.062 88.0299 209.697 87.6934C209.339 87.3496 208.852 87.1742 208.236 87.167H205.637ZM229.678 83.4502H225.907V93H223.297V83.4502H219.569V81.377H229.678V83.4502ZM230.612 87.0811C230.612 85.9424 230.838 84.9183 231.289 84.0088C231.74 83.0921 232.374 82.3903 233.19 81.9033C234.007 81.4092 234.945 81.1621 236.005 81.1621C237.573 81.1621 238.844 81.667 239.818 82.6768C240.799 83.6865 241.329 85.0257 241.408 86.6943L241.419 87.3066C241.419 88.4525 241.197 89.4766 240.753 90.3789C240.316 91.2812 239.686 91.9795 238.862 92.4736C238.046 92.9678 237.101 93.2148 236.026 93.2148C234.386 93.2148 233.072 92.6706 232.084 91.582C231.103 90.4863 230.612 89.029 230.612 87.21V87.0811ZM233.223 87.3066C233.223 88.5026 233.47 89.4408 233.964 90.1211C234.458 90.7943 235.146 91.1309 236.026 91.1309C236.907 91.1309 237.591 90.7871 238.078 90.0996C238.572 89.4121 238.819 88.4059 238.819 87.0811C238.819 85.9066 238.565 84.9756 238.057 84.2881C237.555 83.6006 236.871 83.2568 236.005 83.2568C235.153 83.2568 234.476 83.597 233.975 84.2773C233.473 84.9505 233.223 85.9603 233.223 87.3066Z" fill="#FF2727"/>
<path d="M261 115L389 115" stroke="#FF2727" stroke-width="4"/>
<path d="M315.854 125L310 130.854L319.146 140L310 149.146L315.854 155L325 145.854L334.146 155L340 149.146L330.854 140L340 130.854L334.146 125L325 134.146L315.854 125Z" fill="#FF2727"/>
<rect x="270" y="65" width="110" height="40" fill="white"/>
<path d="M289.121 81.624C289.121 80.9222 288.856 80.3636 288.326 79.9482C287.796 79.5329 287.076 79.3252 286.167 79.3252C285.386 79.3252 284.735 79.5329 284.212 79.9482C283.689 80.3564 283.428 80.8864 283.428 81.5381H280.721C280.721 80.6859 280.957 79.9268 281.43 79.2607C281.902 78.5947 282.558 78.0791 283.396 77.7139C284.233 77.3415 285.157 77.1553 286.167 77.1553C287.957 77.1553 289.347 77.5456 290.335 78.3262C291.33 79.1068 291.828 80.1989 291.828 81.6025C291.828 82.3115 291.613 82.9632 291.184 83.5576C290.754 84.152 290.152 84.6211 289.379 84.9648C290.253 85.2656 290.919 85.724 291.377 86.3398C291.842 86.9486 292.075 87.7077 292.075 88.6172C292.075 90.0208 291.538 91.138 290.464 91.9688C289.39 92.7923 287.957 93.2041 286.167 93.2041C285.064 93.2041 284.065 93.0072 283.17 92.6133C282.282 92.2194 281.612 91.6823 281.161 91.002C280.717 90.3216 280.495 89.541 280.495 88.6602H283.202C283.202 89.3333 283.481 89.9027 284.04 90.3682C284.599 90.8265 285.308 91.0557 286.167 91.0557C287.127 91.0557 287.896 90.8301 288.477 90.3789C289.064 89.9277 289.357 89.3405 289.357 88.6172C289.357 87.7363 289.1 87.099 288.584 86.7051C288.076 86.304 287.327 86.1035 286.339 86.1035H284.502V83.9551H286.242C288.161 83.9551 289.121 83.1781 289.121 81.624ZM301.292 93C301.177 92.778 301.077 92.4163 300.991 91.915C300.16 92.7816 299.144 93.2148 297.94 93.2148C296.773 93.2148 295.821 92.8818 295.083 92.2158C294.345 91.5498 293.977 90.7262 293.977 89.7451C293.977 88.5062 294.435 87.5573 295.352 86.8984C296.275 86.2324 297.593 85.8994 299.305 85.8994H300.905V85.1367C300.905 84.5352 300.737 84.0553 300.4 83.6973C300.064 83.332 299.552 83.1494 298.864 83.1494C298.27 83.1494 297.783 83.2998 297.403 83.6006C297.024 83.8942 296.834 84.2702 296.834 84.7285H294.224C294.224 84.0911 294.435 83.4967 294.857 82.9453C295.28 82.3867 295.853 81.9499 296.576 81.6348C297.307 81.3197 298.119 81.1621 299.015 81.1621C300.375 81.1621 301.46 81.5059 302.27 82.1934C303.079 82.8737 303.494 83.8333 303.516 85.0723V90.3145C303.516 91.36 303.662 92.1943 303.956 92.8174V93H301.292ZM298.424 91.1201C298.939 91.1201 299.423 90.9948 299.874 90.7441C300.332 90.4935 300.676 90.1569 300.905 89.7344V87.543H299.498C298.531 87.543 297.804 87.7113 297.317 88.0479C296.83 88.3844 296.587 88.8607 296.587 89.4766C296.587 89.9779 296.752 90.3789 297.081 90.6797C297.418 90.9733 297.865 91.1201 298.424 91.1201ZM310.38 88.4023H309.059V93H306.448V81.377H309.059V86.0176H310.208L313.42 81.377H316.643L312.442 86.9414L316.997 93H313.603L310.38 88.4023ZM328.609 87.3066C328.609 89.1042 328.201 90.54 327.385 91.6143C326.568 92.6813 325.473 93.2148 324.098 93.2148C322.823 93.2148 321.802 92.7959 321.036 91.958V97.4688H318.426V81.377H320.832L320.939 82.5586C321.706 81.6276 322.748 81.1621 324.065 81.1621C325.483 81.1621 326.593 81.6921 327.396 82.752C328.205 83.8047 328.609 85.2692 328.609 87.1455V87.3066ZM326.01 87.0811C326.01 85.9209 325.777 85.0007 325.312 84.3203C324.853 83.64 324.194 83.2998 323.335 83.2998C322.268 83.2998 321.502 83.7402 321.036 84.6211V89.7773C321.509 90.6797 322.282 91.1309 323.356 91.1309C324.187 91.1309 324.835 90.7979 325.301 90.1318C325.773 89.4587 326.01 88.4417 326.01 87.0811ZM333.637 85.0723H336.193C337.146 85.0723 337.977 85.237 338.686 85.5664C339.395 85.8958 339.932 86.3577 340.297 86.9521C340.669 87.5465 340.855 88.2376 340.855 89.0254C340.855 90.2214 340.433 91.181 339.588 91.9043C338.743 92.6276 337.618 92.9928 336.215 93H331.026V81.377H333.637V85.0723ZM345.399 93H342.789V81.377H345.399V93ZM333.637 87.167V90.916H336.183C336.82 90.916 337.321 90.7585 337.687 90.4434C338.059 90.1211 338.245 89.6663 338.245 89.0791C338.245 88.4919 338.062 88.0299 337.697 87.6934C337.339 87.3496 336.852 87.1742 336.236 87.167H333.637ZM357.678 83.4502H353.907V93H351.297V83.4502H347.569V81.377H357.678V83.4502ZM358.612 87.0811C358.612 85.9424 358.838 84.9183 359.289 84.0088C359.74 83.0921 360.374 82.3903 361.19 81.9033C362.007 81.4092 362.945 81.1621 364.005 81.1621C365.573 81.1621 366.844 81.667 367.818 82.6768C368.799 83.6865 369.329 85.0257 369.408 86.6943L369.419 87.3066C369.419 88.4525 369.197 89.4766 368.753 90.3789C368.316 91.2812 367.686 91.9795 366.862 92.4736C366.046 92.9678 365.101 93.2148 364.026 93.2148C362.386 93.2148 361.072 92.6706 360.084 91.582C359.103 90.4863 358.612 89.029 358.612 87.21V87.0811ZM361.223 87.3066C361.223 88.5026 361.47 89.4408 361.964 90.1211C362.458 90.7943 363.146 91.1309 364.026 91.1309C364.907 91.1309 365.591 90.7871 366.078 90.0996C366.572 89.4121 366.819 88.4059 366.819 87.0811C366.819 85.9066 366.565 84.9756 366.057 84.2881C365.555 83.6006 364.871 83.2568 364.005 83.2568C363.153 83.2568 362.476 83.597 361.975 84.2773C361.473 84.9505 361.223 85.9603 361.223 87.3066Z" fill="#FF2727"/>
<path d="M389 115L517 115" stroke="#FF2727" stroke-width="4"/>
<path d="M443.854 125L438 130.854L447.146 140L438 149.146L443.854 155L453 145.854L462.146 155L468 149.146L458.854 140L468 130.854L462.146 125L453 134.146L443.854 125Z" fill="#FF2727"/>
<rect x="398" y="65" width="110" height="40" fill="white"/>
<path d="M417.121 81.624C417.121 80.9222 416.856 80.3636 416.326 79.9482C415.796 79.5329 415.076 79.3252 414.167 79.3252C413.386 79.3252 412.735 79.5329 412.212 79.9482C411.689 80.3564 411.428 80.8864 411.428 81.5381H408.721C408.721 80.6859 408.957 79.9268 409.43 79.2607C409.902 78.5947 410.558 78.0791 411.396 77.7139C412.233 77.3415 413.157 77.1553 414.167 77.1553C415.957 77.1553 417.347 77.5456 418.335 78.3262C419.33 79.1068 419.828 80.1989 419.828 81.6025C419.828 82.3115 419.613 82.9632 419.184 83.5576C418.754 84.152 418.152 84.6211 417.379 84.9648C418.253 85.2656 418.919 85.724 419.377 86.3398C419.842 86.9486 420.075 87.7077 420.075 88.6172C420.075 90.0208 419.538 91.138 418.464 91.9688C417.39 92.7923 415.957 93.2041 414.167 93.2041C413.064 93.2041 412.065 93.0072 411.17 92.6133C410.282 92.2194 409.612 91.6823 409.161 91.002C408.717 90.3216 408.495 89.541 408.495 88.6602H411.202C411.202 89.3333 411.481 89.9027 412.04 90.3682C412.599 90.8265 413.308 91.0557 414.167 91.0557C415.127 91.0557 415.896 90.8301 416.477 90.3789C417.064 89.9277 417.357 89.3405 417.357 88.6172C417.357 87.7363 417.1 87.099 416.584 86.7051C416.076 86.304 415.327 86.1035 414.339 86.1035H412.502V83.9551H414.242C416.161 83.9551 417.121 83.1781 417.121 81.624ZM429.292 93C429.177 92.778 429.077 92.4163 428.991 91.915C428.16 92.7816 427.144 93.2148 425.94 93.2148C424.773 93.2148 423.821 92.8818 423.083 92.2158C422.345 91.5498 421.977 90.7262 421.977 89.7451C421.977 88.5062 422.435 87.5573 423.352 86.8984C424.275 86.2324 425.593 85.8994 427.305 85.8994H428.905V85.1367C428.905 84.5352 428.737 84.0553 428.4 83.6973C428.064 83.332 427.552 83.1494 426.864 83.1494C426.27 83.1494 425.783 83.2998 425.403 83.6006C425.024 83.8942 424.834 84.2702 424.834 84.7285H422.224C422.224 84.0911 422.435 83.4967 422.857 82.9453C423.28 82.3867 423.853 81.9499 424.576 81.6348C425.307 81.3197 426.119 81.1621 427.015 81.1621C428.375 81.1621 429.46 81.5059 430.27 82.1934C431.079 82.8737 431.494 83.8333 431.516 85.0723V90.3145C431.516 91.36 431.662 92.1943 431.956 92.8174V93H429.292ZM426.424 91.1201C426.939 91.1201 427.423 90.9948 427.874 90.7441C428.332 90.4935 428.676 90.1569 428.905 89.7344V87.543H427.498C426.531 87.543 425.804 87.7113 425.317 88.0479C424.83 88.3844 424.587 88.8607 424.587 89.4766C424.587 89.9779 424.752 90.3789 425.081 90.6797C425.418 90.9733 425.865 91.1201 426.424 91.1201ZM438.38 88.4023H437.059V93H434.448V81.377H437.059V86.0176H438.208L441.42 81.377H444.643L440.442 86.9414L444.997 93H441.603L438.38 88.4023ZM456.609 87.3066C456.609 89.1042 456.201 90.54 455.385 91.6143C454.568 92.6813 453.473 93.2148 452.098 93.2148C450.823 93.2148 449.802 92.7959 449.036 91.958V97.4688H446.426V81.377H448.832L448.939 82.5586C449.706 81.6276 450.748 81.1621 452.065 81.1621C453.483 81.1621 454.593 81.6921 455.396 82.752C456.205 83.8047 456.609 85.2692 456.609 87.1455V87.3066ZM454.01 87.0811C454.01 85.9209 453.777 85.0007 453.312 84.3203C452.853 83.64 452.194 83.2998 451.335 83.2998C450.268 83.2998 449.502 83.7402 449.036 84.6211V89.7773C449.509 90.6797 450.282 91.1309 451.356 91.1309C452.187 91.1309 452.835 90.7979 453.301 90.1318C453.773 89.4587 454.01 88.4417 454.01 87.0811ZM461.637 85.0723H464.193C465.146 85.0723 465.977 85.237 466.686 85.5664C467.395 85.8958 467.932 86.3577 468.297 86.9521C468.669 87.5465 468.855 88.2376 468.855 89.0254C468.855 90.2214 468.433 91.181 467.588 91.9043C466.743 92.6276 465.618 92.9928 464.215 93H459.026V81.377H461.637V85.0723ZM473.399 93H470.789V81.377H473.399V93ZM461.637 87.167V90.916H464.183C464.82 90.916 465.321 90.7585 465.687 90.4434C466.059 90.1211 466.245 89.6663 466.245 89.0791C466.245 88.4919 466.062 88.0299 465.697 87.6934C465.339 87.3496 464.852 87.1742 464.236 87.167H461.637ZM485.678 83.4502H481.907V93H479.297V83.4502H475.569V81.377H485.678V83.4502ZM486.612 87.0811C486.612 85.9424 486.838 84.9183 487.289 84.0088C487.74 83.0921 488.374 82.3903 489.19 81.9033C490.007 81.4092 490.945 81.1621 492.005 81.1621C493.573 81.1621 494.844 81.667 495.818 82.6768C496.799 83.6865 497.329 85.0257 497.408 86.6943L497.419 87.3066C497.419 88.4525 497.197 89.4766 496.753 90.3789C496.316 91.2812 495.686 91.9795 494.862 92.4736C494.046 92.9678 493.101 93.2148 492.026 93.2148C490.386 93.2148 489.072 92.6706 488.084 91.582C487.103 90.4863 486.612 89.029 486.612 87.21V87.0811ZM489.223 87.3066C489.223 88.5026 489.47 89.4408 489.964 90.1211C490.458 90.7943 491.146 91.1309 492.026 91.1309C492.907 91.1309 493.591 90.7871 494.078 90.0996C494.572 89.4121 494.819 88.4059 494.819 87.0811C494.819 85.9066 494.565 84.9756 494.057 84.2881C493.555 83.6006 492.871 83.2568 492.005 83.2568C491.153 83.2568 490.476 83.597 489.975 84.2773C489.473 84.9505 489.223 85.9603 489.223 87.3066Z" fill="#FF2727"/>
</svg>
