<svg width="72" height="58" viewBox="0 0 72 58" fill="none" xmlns="http://www.w3.org/2000/svg">
<g filter="url(#filter0_d)">
<path d="M35.5275 18.2454C35.9483 18.2454 36.2892 17.9044 36.2892 17.4836V16.7918C36.2892 16.371 35.9483 16.0301 35.5275 16.0301C35.1068 16.0301 34.7658 16.371 34.7658 16.7918V17.4836C34.7658 17.9043 35.1068 18.2454 35.5275 18.2454Z" fill="white"/>
<path d="M60.9002 16.4606L57.0033 13.6431C56.6626 13.3968 56.1864 13.473 55.9397 13.8141C55.6932 14.1549 55.7698 14.6312 56.1107 14.8777L60.0075 17.6953C60.3056 17.9107 60.4765 18.2452 60.4765 18.613C60.4765 18.9808 60.3055 19.3153 60.0075 19.5307L52.6565 24.8459C52.4056 25.0274 52.0914 25.0514 51.8157 24.9107C51.54 24.7698 51.3755 24.501 51.3755 24.1914V23.2781C51.3755 22.4585 50.7087 21.7917 49.8891 21.7917H42.6963C42.4128 21.7917 42.1821 21.561 42.1821 21.2776V15.9484C42.1821 15.665 42.4128 15.4342 42.6963 15.4342H49.8891C50.7086 15.4342 51.3755 14.7675 51.3755 13.9478V13.0345C51.3755 12.725 51.54 12.4562 51.8156 12.3153C52.0914 12.1743 52.4057 12.1987 52.6564 12.3799L53.2096 12.7801C53.5505 13.0267 54.0267 12.9502 54.2732 12.6093C54.5198 12.2684 54.4433 11.7921 54.1024 11.5456L53.5491 11.1454C52.8358 10.6298 51.9059 10.5582 51.1224 10.9588C50.3387 11.3591 49.8519 12.1546 49.8519 13.0345V13.9108H42.6963C41.5727 13.9108 40.6586 14.8248 40.6586 15.9484V21.2777C40.6586 22.4012 41.5727 23.3152 42.6963 23.3152H49.852V24.1915C49.852 25.0715 50.3388 25.8669 51.1226 26.2673C51.4593 26.4393 51.8228 26.5243 52.1848 26.5242C52.6651 26.5242 53.1424 26.3746 53.5492 26.0806L60.9003 20.7654C61.5992 20.2599 62 19.4756 62 18.6131C61.9999 17.7505 61.5991 16.9661 60.9002 16.4606Z" fill="white"/>
<path d="M39.1212 25.339L35.7922 26.8912L33.6519 26.1123C36.5266 24.6293 38.4968 21.6294 38.4968 18.1778C38.4968 13.2584 34.4946 9.2561 29.5751 9.2561C24.6555 9.2561 20.6533 13.2583 20.6533 18.1778C20.6533 19.3787 20.8953 20.551 21.3511 21.6351L19.0114 20.7835C17.7692 20.3315 16.4294 20.4009 15.2389 20.9792C14.1033 21.531 13.2305 22.5147 12.7812 23.7492L11.5998 26.995C10.9675 28.7326 11.8665 30.6607 13.604 31.2932C15.3418 31.9254 17.2697 31.0261 17.902 29.2888L18.4715 27.7243L21.4811 28.8197L20.1516 32.4722C20.0838 32.6587 19.9474 32.8074 19.7676 32.8913L18.2487 33.5996C18.0732 33.6817 17.8762 33.6904 17.6938 33.6238L14.5004 32.4615C12.763 31.829 10.8348 32.7285 10.2025 34.4657C9.57007 36.2033 10.4692 38.1315 12.2067 38.7639L16.8526 40.4548C17.4662 40.678 18.1045 40.7913 18.7501 40.7913C19.5593 40.7913 20.3458 40.6158 21.0877 40.2699L23.5965 39.1L25.5387 39.8069L24.6521 42.2426C24.0197 43.9801 24.9188 45.9081 26.6566 46.5407C27.0268 46.6753 27.4124 46.7436 27.8031 46.7436C29.2075 46.7436 30.4739 45.8567 30.9544 44.5364L32.4793 40.3468C33.3921 37.8391 32.0944 35.056 29.5865 34.1429L28.7176 33.8267C28.571 33.7733 28.4951 33.6107 28.5485 33.4643L29.2146 31.6341L33.9526 33.3585C34.5661 33.582 35.2042 33.6952 35.8492 33.6952H35.8502C36.6593 33.6952 37.4458 33.5197 38.1877 33.1738L41.9025 31.4415C42.731 31.0552 43.3819 30.3362 43.6883 29.469C43.9906 28.6137 43.9411 27.7022 43.5496 26.9023C42.7522 25.2738 40.7656 24.5724 39.1212 25.339ZM42.2521 28.9621C42.0811 29.4461 41.7191 29.8468 41.2589 30.0614L37.544 31.7936C37.0052 32.0449 36.4355 32.1723 35.8503 32.1723C35.3836 32.1723 34.9201 32.09 34.474 31.9275L29.6019 30.1542C28.8861 29.8938 28.0924 30.2643 27.8319 30.9796L27.1172 32.9436C26.7765 33.8794 27.2609 34.9179 28.1967 35.2586L29.0657 35.5749C30.7844 36.2005 31.6736 38.1077 31.048 39.8261L29.5231 44.0157C29.2608 44.7364 28.5697 45.2206 27.8033 45.2206C27.5907 45.2206 27.3802 45.1832 27.1777 45.1095C26.2295 44.7644 25.7388 43.7121 26.0839 42.764L27.0191 40.1942C27.2794 39.4786 26.9092 38.6846 26.1938 38.4242L23.8213 37.5608C23.6314 37.4917 23.4217 37.5006 23.2388 37.5862L20.444 38.8895C19.9052 39.1408 19.3355 39.2681 18.7503 39.2681C18.283 39.2681 17.82 39.1857 17.3739 39.0235L12.7279 37.3325C12.2686 37.1654 11.9017 36.8293 11.6953 36.3864C11.4887 35.9435 11.4669 35.4464 11.6342 34.9872C11.9792 34.0391 13.0312 33.5481 13.9797 33.8933L17.1728 35.0556C17.7376 35.261 18.3484 35.2344 18.8929 34.9805L20.4116 34.2723C20.9602 34.0164 21.3764 33.5624 21.5834 32.9935L22.9615 29.207C23.0877 28.8604 23.0712 28.4855 22.9154 28.1511C22.7595 27.8167 22.4827 27.5631 22.1361 27.437L18.8588 26.2442C18.1433 25.9838 17.3494 26.3541 17.0888 27.0697L16.4707 28.7681C16.1257 29.7162 15.0735 30.207 14.1252 29.8619C13.177 29.5169 12.6864 28.4646 13.0315 27.5165L14.2129 24.2706C14.5262 23.4098 15.127 22.7277 15.9046 22.3498C16.721 21.9534 17.6393 21.9056 18.4905 22.2154L22.5706 23.7006C22.7036 23.869 22.8411 24.0345 22.9869 24.1942C23.2708 24.505 23.7526 24.5266 24.0631 24.2428C24.3738 23.959 24.3954 23.4772 24.1117 23.1667C22.8641 21.8011 22.177 20.0294 22.177 18.1782C22.177 14.0989 25.4958 10.7799 29.5753 10.7799C33.6546 10.7799 36.9736 14.0988 36.9736 18.1782C36.9736 22.2576 33.6547 25.5765 29.5753 25.5765C28.6019 25.5765 27.656 25.3906 26.7639 25.0239C26.3753 24.864 25.9299 25.0498 25.7698 25.4388C25.6099 25.8279 25.7956 26.2729 26.1847 26.4329C27.2615 26.8755 28.4021 27.1 29.5753 27.1C30.1991 27.1 30.808 27.0354 31.3961 26.9129L35.5676 28.4311C35.7573 28.5001 35.9668 28.4911 36.1501 28.4056L39.765 26.72C40.6626 26.3014 41.7465 26.6844 42.1814 27.5729C42.3918 28.0022 42.417 28.4956 42.2521 28.9621Z" fill="white"/>
<path d="M31.4283 20.2289C32.5649 20.2289 33.4896 19.2349 33.4896 18.0131C33.4896 16.7913 32.5649 15.7972 31.4283 15.7972C30.2918 15.7972 29.367 16.7913 29.367 18.0131C29.367 19.2349 30.2918 20.2289 31.4283 20.2289ZM31.4283 17.3205C31.7199 17.3205 31.9662 17.6376 31.9662 18.013C31.9662 18.3883 31.7199 18.7054 31.4283 18.7054C31.1368 18.7054 30.8905 18.3883 30.8905 18.013C30.8905 17.6376 31.1368 17.3205 31.4283 17.3205Z" fill="white"/>
<path d="M27.3293 18.2454C27.7501 18.2454 28.0911 17.9044 28.0911 17.4836V16.7918C28.0911 16.371 27.7501 16.0301 27.3293 16.0301C26.9086 16.0301 26.5676 16.371 26.5676 16.7918V17.4836C26.5676 17.9043 26.9086 18.2454 27.3293 18.2454Z" fill="white"/>
</g>
<defs>
<filter id="filter0_d" x="6.10352e-05" y="0.256104" width="71.9999" height="57.4875" filterUnits="userSpaceOnUse" color-interpolation-filters="sRGB">
<feFlood flood-opacity="0" result="BackgroundImageFix"/>
<feColorMatrix in="SourceAlpha" type="matrix" values="0 0 0 0 0 0 0 0 0 0 0 0 0 0 0 0 0 0 127 0"/>
<feOffset dy="1"/>
<feGaussianBlur stdDeviation="5"/>
<feColorMatrix type="matrix" values="0 0 0 0 0 0 0 0 0 0 0 0 0 0 0 0 0 0 0.5 0"/>
<feBlend mode="normal" in2="BackgroundImageFix" result="effect1_dropShadow"/>
<feBlend mode="normal" in="SourceGraphic" in2="effect1_dropShadow" result="shape"/>
</filter>
</defs>
</svg>
