<svg width="50" height="39" viewBox="0 0 50 39" fill="none" xmlns="http://www.w3.org/2000/svg">
<path fill-rule="evenodd" clip-rule="evenodd" d="M1 11.0332C0.917112 11.0033 0.826854 10.9868 0.732422 10.9868C0.32793 10.9868 0 11.2887 0 11.6611V31.8398C0 32.2122 0.32793 32.514 0.732422 32.514H1.91123L3.18154 34.2271C2.66543 34.7344 2.34844 35.4155 2.34844 36.1638C2.34844 36.7091 2.51689 37.2187 2.80771 37.6515H0.732422C0.32793 37.6515 0 37.9534 0 38.3258C0 38.6982 0.32793 39.0001 0.732422 39.0001H49.2676C49.6721 39.0001 50 38.6982 50 38.3258C50 37.9534 49.6721 37.6515 49.2676 37.6515H47.3635C47.6544 37.2187 47.8228 36.7091 47.8228 36.1638C47.8228 35.4155 47.5058 34.7345 46.9897 34.2271L48.26 32.514H49.2676C49.6721 32.514 50 32.2122 50 31.8398V11.6611C50 11.2887 49.6721 10.9868 49.2676 10.9868C49.1731 10.9868 49.0829 11.0033 49 11.0332V31.2347H1V11.0332ZM3.81338 36.1638C3.81338 36.9842 4.53828 37.6515 5.42939 37.6515C6.32051 37.6515 7.04541 36.9842 7.04541 36.1638C7.04541 35.3435 6.32051 34.6761 5.42939 34.6761C4.53828 34.6761 3.81338 35.3435 3.81338 36.1638ZM8.51025 36.1638C8.51025 36.7091 8.3419 37.2187 8.05098 37.6515H10.636C10.3452 37.2187 10.1768 36.7091 10.1768 36.1638C10.1768 36.1547 10.1771 36.1456 10.1774 36.1365C10.1777 36.1301 10.1779 36.1238 10.178 36.1174H8.50898C8.5091 36.1238 8.50934 36.1301 8.50958 36.1365C8.50992 36.1456 8.51025 36.1547 8.51025 36.1638ZM11.6415 36.1638C11.6415 36.9842 12.3665 37.6515 13.2576 37.6515C14.1487 37.6515 14.8736 36.9842 14.8736 36.1638C14.8736 35.3435 14.1487 34.6761 13.2576 34.6761C12.3665 34.6761 11.6415 35.3435 11.6415 36.1638ZM16.3385 36.1638C16.3385 36.7091 16.1701 37.2187 15.8792 37.6515H34.292C34.0012 37.2187 33.8327 36.7091 33.8327 36.1638C33.8327 36.1483 33.8337 36.1329 33.834 36.1174H16.3372C16.3375 36.1329 16.3385 36.1483 16.3385 36.1638ZM35.2977 36.1638C35.2977 36.9842 36.0226 37.6515 36.9137 37.6515C37.8048 37.6515 38.5297 36.9842 38.5297 36.1638C38.5297 35.3435 37.8048 34.6761 36.9137 34.6761C36.0226 34.6761 35.2977 35.3435 35.2977 36.1638ZM39.9945 36.1638C39.9945 36.7091 39.8262 37.2187 39.5353 37.6515H42.1203C41.8295 37.2187 41.661 36.7091 41.661 36.1638C41.661 36.1547 41.6614 36.1455 41.6617 36.1365C41.6619 36.1301 41.6622 36.1238 41.6623 36.1174H39.9933C39.9934 36.1238 39.9936 36.1301 39.9939 36.1365C39.9942 36.1456 39.9945 36.1547 39.9945 36.1638ZM43.1259 36.1638C43.1259 36.9842 43.8508 37.6515 44.7419 37.6515C45.633 37.6515 46.3579 36.9842 46.3579 36.1638C46.3579 35.3435 45.633 34.6761 44.7419 34.6761C43.8508 34.6761 43.1259 35.3435 43.1259 36.1638ZM44.7419 33.3276C45.1 33.3276 45.4437 33.3847 45.7637 33.4886L46.4863 32.5141H3.68486L4.40752 33.4886C4.72744 33.3847 5.07119 33.3276 5.4293 33.3276C6.57754 33.3276 7.58037 33.9092 8.11025 34.7689H10.5767C11.1065 33.9092 12.1094 33.3276 13.2576 33.3276C14.4059 33.3276 15.4087 33.9092 15.9386 34.7689H34.2326C34.7625 33.9092 35.7653 33.3276 36.9136 33.3276C38.0618 33.3276 39.0646 33.9092 39.5945 34.7689H42.0609C42.5908 33.9092 43.5937 33.3276 44.7419 33.3276Z" fill="white"/>
<path d="M24 20.6636C24 21.4017 24.4477 22 25 22C25.5523 22 26 21.4017 26 20.6636L26 1.33645C26 0.598348 25.5523 -2.41411e-08 25 0C24.4477 2.41411e-08 24 0.598348 24 1.33645L24 20.6636Z" fill="white"/>
<path d="M24.036 20.5497C23.7481 20.8376 23.8313 21.3876 24.2218 21.7782C24.6123 22.1687 25.1623 22.2519 25.4502 21.9639L32.9892 14.425C33.2771 14.137 33.194 13.5871 32.8034 13.1965C32.4129 12.806 31.8629 12.7228 31.575 13.0107L24.036 20.5497Z" fill="white"/>
<path d="M24.0603 21.4745C24.3482 21.7625 24.8982 21.6793 25.2887 21.2887C25.6793 20.8982 25.7624 20.3482 25.4745 20.0603L17.9355 12.5213C17.6476 12.2334 17.0976 12.3166 16.7071 12.7071C16.3166 13.0976 16.2334 13.6476 16.5213 13.9355L24.0603 21.4745Z" fill="white"/>
</svg>
