<svg width="50" height="35" viewBox="0 0 50 35" fill="none" xmlns="http://www.w3.org/2000/svg">
<path d="M13.531 0.637016C13.531 0.285202 13.8007 0 14.1334 0H16.8211C17.1538 0 17.4235 0.285201 17.4235 0.637016C17.4235 0.98883 17.1538 1.27403 16.8211 1.27403L14.1334 1.27403C13.8007 1.27403 13.531 0.98883 13.531 0.637016Z" fill="#083A42"/>
<path fill-rule="evenodd" clip-rule="evenodd" d="M7.65288 28.0343C7.65288 28.3965 7.93062 28.6902 8.2732 28.6902H9.12659L10.2025 30.3567C9.76535 30.8503 9.49688 31.5128 9.49688 32.2408C9.49688 32.7713 9.63947 33.2671 9.88586 33.6881H8.2732C7.93062 33.6881 7.65288 33.9818 7.65288 34.3441C7.65288 34.7064 7.93062 35 8.2732 35H49.3797C49.7223 35 50 34.7064 50 34.3441C50 33.9818 49.7223 33.6881 49.3797 33.6881H47.622C47.8683 33.2671 48.011 32.7713 48.011 32.2408C48.011 31.5128 47.7425 30.8502 47.3054 30.3567L48.3813 28.6902H49.3797C49.7223 28.6902 50 28.3965 50 28.0343L46.6851 8.09001C46.6851 7.72775 46.4074 7.43406 46.0648 7.43406C45.7222 7.43406 45.4445 7.72775 45.4445 8.09001V8.83623H44.8234L31.5396 2.81605C31.0524 2.59513 30.4935 2.59522 30.0062 2.81605L27.1187 4.12473L21.7935 0.906963C21.1978 0.547063 20.4578 0.54715 19.8622 0.906963L6.73993 8.83623H6.19893V8.09001C6.19893 7.72775 5.9212 7.43406 5.57861 7.43406C5.23603 7.43406 4.9583 7.72775 4.9583 8.09001L7.65288 28.0343ZM30.4949 4.02196C30.6716 3.94193 30.8742 3.94185 31.0509 4.02196L41.6739 8.83623H19.8719L23.2782 7.29255C23.5931 7.14981 23.739 6.76429 23.604 6.43124C23.4691 6.09827 23.1044 5.94399 22.7895 6.08673L16.7224 8.83631H9.24048L20.4777 2.04614C20.6936 1.91565 20.962 1.91565 21.1779 2.04614L25.6897 4.77237L25.2249 4.98298C24.9101 5.12571 24.7642 5.51124 24.8992 5.84429C25.0341 6.17734 25.3989 6.33153 25.7137 6.1888L30.4949 4.02196ZM6.32953 10.1481H45.5751L45.8645 11.6406H6.49495L6.32953 10.1481ZM15.7446 27.3783L13.05 12.9525H15.2349L17.9295 27.3783H15.7446ZM19.1701 27.3783L16.4756 12.9525H18.6605L21.3551 27.3783H19.1701ZM22.5957 27.3783L19.9011 12.9525H22.0861L24.7806 27.3783H22.5957ZM26.0212 27.3783L23.3266 12.9525H25.5115L28.2061 27.3783H26.0212ZM29.4468 27.3783L26.7522 12.9525H28.9371L31.6317 27.3783H29.4468ZM32.8723 27.3783L30.1777 12.9525H32.3627L35.0573 27.3783H32.8723ZM36.2978 27.3783L33.6032 12.9525H35.7882L38.4827 27.3783H36.2978ZM39.7234 27.3783L37.0288 12.9525H39.2137L41.9083 27.3783H39.7234ZM46.1954 12.9525L48.7594 27.3783H46.7703L46.5744 26.6323C46.5744 26.27 46.2967 25.9763 45.9541 25.9763C45.6115 25.9763 45.3338 26.27 45.3338 26.6323L45.5296 27.3783H43.1489L40.4543 12.9525H42.6392L44.8241 23.8216C44.8241 24.1839 45.1019 24.4776 45.4445 24.4776C45.787 24.4776 46.0648 24.1839 46.0648 23.8216L43.8798 12.9525H46.1954ZM46.7703 32.2408C46.7703 33.0389 46.1563 33.6881 45.4016 33.6881C44.6469 33.6881 44.0329 33.0389 44.0329 32.2408C44.0329 31.4428 44.6469 30.7935 45.4016 30.7935C46.1563 30.7935 46.7703 31.4428 46.7703 32.2408ZM42.7923 32.2408C42.7923 32.7713 42.9349 33.2671 43.1813 33.6881H40.9919C41.2382 33.2671 41.3809 32.7713 41.3809 32.2408C41.3809 32.2319 41.3806 32.2231 41.3803 32.2143L41.3798 32.1957H42.7934L42.7924 32.2308L42.7923 32.2408ZM40.1403 32.2408C40.1403 33.0389 39.5263 33.6881 38.7716 33.6881C38.0168 33.6881 37.4029 33.0389 37.4029 32.2408C37.4029 31.4428 38.0168 30.7935 38.7716 30.7935C39.5263 30.7935 40.1403 31.4428 40.1403 32.2408ZM36.1623 32.2408C36.1623 32.7713 36.3048 33.2671 36.5512 33.6881H20.9567C21.203 33.2671 21.3456 32.7713 21.3456 32.2408C21.3456 32.2319 21.3454 32.2231 21.3451 32.2143L21.3446 32.1957H36.1633C36.1631 32.2108 36.1623 32.2257 36.1623 32.2408ZM20.1049 32.2408C20.1049 33.0389 19.491 33.6881 18.7362 33.6881C17.9815 33.6881 17.3676 33.0389 17.3676 32.2408C17.3676 31.4428 17.9815 30.7935 18.7362 30.7935C19.491 30.7935 20.1049 31.4428 20.1049 32.2408ZM16.1269 32.2408C16.1269 32.7713 16.2695 33.2671 16.5159 33.6881H14.3265C14.5728 33.2671 14.7155 32.7713 14.7155 32.2408C14.7155 32.2319 14.7152 32.2231 14.7149 32.2143L14.7144 32.1957H16.128L16.1274 32.2165L16.1272 32.225L16.1269 32.2408ZM13.4749 32.2408C13.4749 33.0389 12.8609 33.6881 12.1062 33.6881C11.3515 33.6881 10.7375 33.0389 10.7375 32.2408C10.7375 31.4428 11.3515 30.7935 12.1062 30.7935C12.8609 30.7935 13.4749 31.4428 13.4749 32.2408ZM12.1062 29.4816C11.8029 29.4816 11.5118 29.5372 11.2408 29.6383L10.6288 28.6903H46.8791L46.2671 29.6383C45.9961 29.5372 45.705 29.4816 45.4017 29.4816C44.4292 29.4816 43.5799 30.0475 43.1311 30.8838H41.0422C40.5934 30.0475 39.7441 29.4816 38.7716 29.4816C37.7991 29.4816 36.9497 30.0475 36.5009 30.8838H21.0069C20.5582 30.0475 19.7088 29.4816 18.7363 29.4816C17.7638 29.4816 16.9145 30.0475 16.4657 30.8838H14.3768C13.928 30.0475 13.0787 29.4816 12.1062 29.4816ZM9.10029 16.4312L11.0784 27.3783H8.89352L6.73993 12.9525H8.30272L8.46814 13.6762C8.46814 14.0385 8.75771 14.3322 9.10029 14.3322C9.44287 14.3322 9.70878 14.0385 9.70878 13.6762L9.54336 12.9525H11.8094L14.504 27.3783H12.3191L10.3409 16.4312C10.3409 16.069 10.0632 15.7753 9.72061 15.7753C9.37803 15.7753 9.10029 16.069 9.10029 16.4312Z" fill="#083A42"/>
<path d="M3.75356 2.74404C3.42086 2.74404 3.15115 3.02924 3.15115 3.38106C3.15115 3.73287 3.42086 4.01807 3.75356 4.01807L12.4653 4.01808C12.798 4.01808 13.0677 3.73287 13.0677 3.38106C13.0677 3.02925 12.798 2.74404 12.4653 2.74404L3.75356 2.74404Z" fill="#083A42"/>
<path d="M3.15115 30.6258C3.15115 30.274 3.42086 29.9888 3.75356 29.9888H8.10945C8.44215 29.9888 8.71186 30.274 8.71186 30.6258C8.71186 30.9776 8.44215 31.2628 8.10945 31.2628H3.75356C3.42086 31.2628 3.15115 30.9776 3.15115 30.6258Z" fill="#083A42"/>
<path d="M0.60241 23.6185C0.269708 23.6185 0 23.9037 0 24.2556C0 24.6074 0.269708 24.8926 0.60241 24.8926H4.95829C5.291 24.8926 5.5607 24.6074 5.5607 24.2556C5.5607 23.9037 5.291 23.6185 4.95829 23.6185H0.60241Z" fill="#083A42"/>
<path d="M1.48291 20.5315C1.48291 20.1797 1.75262 19.8945 2.08532 19.8945H4.3096C4.6423 19.8945 4.91201 20.1797 4.91201 20.5315C4.91201 20.8833 4.6423 21.1685 4.3096 21.1685H2.08532C1.75262 21.1685 1.48291 20.8833 1.48291 20.5315Z" fill="#083A42"/>
<path d="M0.973137 10.1923C0.640436 10.1923 0.370728 10.4775 0.370728 10.8293C0.370728 11.1811 0.640436 11.4663 0.973137 11.4663H3.75349C4.08619 11.4663 4.3559 11.1811 4.3559 10.8293C4.3559 10.4775 4.08619 10.1923 3.75349 10.1923H0.973137Z" fill="#083A42"/>
<path d="M9.31422 0C8.98151 0 8.71181 0.285202 8.71181 0.637016C8.71181 0.98883 8.98151 1.27403 9.31422 1.27403L12.0019 1.27403C12.3346 1.27403 12.6043 0.98883 12.6043 0.637016C12.6043 0.285201 12.3346 0 12.0019 0H9.31422Z" fill="#083A42"/>
</svg>
