<svg width="61" height="60" viewBox="0 0 61 60" fill="none" xmlns="http://www.w3.org/2000/svg">
<g filter="url(#filter0_d)">
<path fill-rule="evenodd" clip-rule="evenodd" d="M16.1393 9C15.2163 9 14.4659 9.75036 14.4659 10.6733V11.149H13.8126C11.7101 11.149 10 12.8592 10 14.9617V37.1666C10 37.6285 10.3745 38.0025 10.8359 38.0025C11.2974 38.0025 11.6719 37.6285 11.6719 37.1666V20.3508H45.7913V26.5416C45.7913 27.0035 46.1658 27.3775 46.6273 27.3775C47.0891 27.3775 47.4632 27.0034 47.4632 26.5416V14.9617C47.4632 12.8592 45.7531 11.149 43.6509 11.149H42.3643V10.6733C42.3643 9.75036 41.614 9 40.691 9H39.6024C38.6797 9 37.9294 9.75039 37.9294 10.6733V11.149H34.5433V10.6733C34.5433 9.75036 33.7929 9 32.8699 9H31.7814C30.8587 9 30.1083 9.75039 30.1083 10.6733V11.149H26.7219V10.6733C26.7219 9.75036 25.9716 9 25.0486 9H23.9603C23.0373 9 22.287 9.75036 22.287 10.6733V11.149H18.9009V10.6733C18.9009 9.75036 18.1505 9 17.2275 9H16.1393ZM16.1378 13.52V10.6733L16.1384 10.6724L16.1393 10.6719L17.2285 10.6723C17.2291 10.6729 17.229 10.6732 17.229 10.6733L17.229 13.5201C17.229 13.5203 17.2285 13.5209 17.2278 13.5215H16.1393C16.1391 13.5215 16.139 13.5217 16.1383 13.521C16.1378 13.5204 16.1378 13.5202 16.1378 13.52ZM23.9589 13.52V10.6733L25.0498 10.6724L25.0504 10.6733V13.52L25.0498 13.5209L25.0489 13.5215H23.9603L23.9593 13.521C23.9588 13.5204 23.9588 13.5202 23.9589 13.52ZM31.7802 13.52V10.6733C31.7802 10.6732 31.7804 10.6729 31.7808 10.6725C31.781 10.6723 31.7806 10.6727 31.7808 10.6725L32.8699 10.6719L32.8708 10.6724L32.8714 10.6733V13.52L32.8708 13.5209L32.8699 13.5215H31.7814C31.7812 13.5215 31.7805 13.5204 31.7802 13.52C31.7802 13.5204 31.78 13.5198 31.7802 13.52ZM39.6013 13.52V10.6733L39.6018 10.6724L39.6027 10.6719L40.6919 10.6723C40.6926 10.673 40.6924 10.6731 40.6924 10.6733V13.52C40.6924 13.5202 40.692 13.5208 40.6913 13.5215H39.6027C39.6025 13.5215 39.6024 13.5217 39.6017 13.521C39.6015 13.5208 39.6018 13.5212 39.6017 13.521L39.6013 13.52ZM11.6719 14.9617C11.6719 13.7814 12.6323 12.8209 13.8126 12.8209H14.4659V13.52C14.4659 14.443 15.2163 15.1934 16.1393 15.1934H17.2278C18.1506 15.1934 18.9009 14.443 18.9009 13.52V12.8209H22.2873V13.52C22.2873 14.443 23.0376 15.1934 23.9603 15.1934H25.0489C25.9719 15.1934 26.7222 14.443 26.7222 13.52V12.8209H30.1083V13.52C30.1083 14.443 30.8587 15.1934 31.7817 15.1934H32.8702C33.793 15.1934 34.5433 14.443 34.5433 13.52V12.8209H37.9294V13.52C37.9294 14.443 38.6797 15.1934 39.6027 15.1934H40.6913C41.614 15.1934 42.3643 14.443 42.3643 13.52V12.8209H43.6509C44.8312 12.8209 45.7916 13.7814 45.7916 14.9617V18.679H11.6719V14.9617Z" fill="white"/>
<path d="M14.8273 21.5595C14.3658 21.5595 13.9914 21.9339 13.9914 22.3954C13.9914 22.8574 14.3659 23.2314 14.8273 23.2314H16.8641C17.3255 23.2314 17.7 22.8574 17.7 22.3954C17.7 21.9339 17.3256 21.5595 16.8641 21.5595H14.8273Z" fill="white"/>
<path d="M21.0865 21.5595C20.6249 21.5595 20.2505 21.9339 20.2505 22.3954C20.2505 22.8574 20.625 23.2314 21.0865 23.2314H23.1232C23.5847 23.2314 23.9592 22.8574 23.9592 22.3954C23.9592 21.9339 23.5848 21.5595 23.1232 21.5595H21.0865Z" fill="white"/>
<path d="M27.3456 21.5595C26.8837 21.5595 26.5097 21.934 26.5097 22.3954C26.5097 22.8573 26.8838 23.2314 27.3456 23.2314H29.3821C29.8436 23.2314 30.218 22.8574 30.218 22.3954C30.218 21.9339 29.8436 21.5595 29.3821 21.5595H27.3456Z" fill="white"/>
<path d="M33.6045 21.5595C33.1429 21.5595 32.7686 21.9339 32.7686 22.3954C32.7686 22.8574 33.143 23.2314 33.6045 23.2314H35.6412C36.1027 23.2314 36.4772 22.8574 36.4772 22.3954C36.4772 21.9339 36.1028 21.5595 35.6412 21.5595H33.6045Z" fill="white"/>
<path d="M39.8636 21.5595C39.4017 21.5595 39.0277 21.934 39.0277 22.3954C39.0277 22.8573 39.4018 23.2314 39.8636 23.2314H41.9001C42.3616 23.2314 42.736 22.8574 42.736 22.3954C42.736 21.9339 42.3616 21.5595 41.9001 21.5595H39.8636Z" fill="white"/>
<path d="M14.8273 24.506C14.3659 24.506 13.9914 24.88 13.9914 25.3419C13.9914 25.8039 14.3659 26.1779 14.8273 26.1779H16.8641C17.3255 26.1779 17.7 25.8039 17.7 25.3419C17.7 24.88 17.3255 24.506 16.8641 24.506H14.8273Z" fill="white"/>
<path d="M21.0865 24.506C20.625 24.506 20.2505 24.88 20.2505 25.3419C20.2505 25.8039 20.625 26.1779 21.0865 26.1779H23.1232C23.5847 26.1779 23.9592 25.8039 23.9592 25.3419C23.9592 24.88 23.5847 24.506 23.1232 24.506H21.0865Z" fill="white"/>
<path d="M27.3456 24.506C26.8838 24.506 26.5097 24.8801 26.5097 25.3419C26.5097 25.8038 26.8838 26.1779 27.3456 26.1779H29.3821C29.8436 26.1779 30.218 25.8039 30.218 25.3419C30.218 24.88 29.8436 24.506 29.3821 24.506H27.3456Z" fill="white"/>
<path d="M33.6045 24.506C33.143 24.506 32.7686 24.88 32.7686 25.3419C32.7686 25.8039 33.143 26.1779 33.6045 26.1779H35.6412C36.1027 26.1779 36.4772 25.8039 36.4772 25.3419C36.4772 24.88 36.1027 24.506 35.6412 24.506H33.6045Z" fill="white"/>
<path d="M39.8636 24.506C39.4018 24.506 39.0277 24.8801 39.0277 25.3419C39.0277 25.8038 39.4018 26.1779 39.8636 26.1779H41.9001C42.3616 26.1779 42.736 25.8039 42.736 25.3419C42.736 24.88 42.3616 24.506 41.9001 24.506H39.8636Z" fill="white"/>
<path fill-rule="evenodd" clip-rule="evenodd" d="M35.8036 28.7531C34.8064 27.7558 33.1841 27.7558 32.1868 28.7531L25.745 35.195L24.5405 33.9908C23.5435 32.9935 21.9212 32.9937 20.9237 33.9909C19.9267 34.9881 19.9267 36.6103 20.924 37.6076L23.9367 40.6203C24.4194 41.103 25.0622 41.3692 25.745 41.3692C26.4276 41.3692 27.0708 41.103 27.5533 40.6203L35.8036 32.3699C36.8009 31.3726 36.8009 29.7504 35.8036 28.7531ZM26.3359 36.9683L33.3689 29.9356C33.7145 29.5903 34.2765 29.5904 34.6212 29.9352C34.9664 30.2804 34.9664 30.8426 34.6212 31.1878L26.3711 39.4379C26.2034 39.6056 25.982 39.6973 25.745 39.6973C25.508 39.6973 25.2865 39.6056 25.1188 39.4379L22.1061 36.4252C21.761 36.08 21.761 35.5181 22.1061 35.1729C22.2785 35.0006 22.5048 34.9141 22.7323 34.9141C22.9597 34.9141 23.1861 35.0006 23.3584 35.1729L25.1538 36.9683C25.4803 37.2948 26.0094 37.2948 26.3359 36.9683Z" fill="white"/>
<path d="M42.4763 35.7969C42.0143 35.7969 41.6403 36.1713 41.6403 36.6328V40.0465C41.6403 40.5084 42.0144 40.8824 42.4763 40.8824L45.164 40.8828C45.6255 40.8828 46 40.5088 46 40.0469C46 39.5849 45.6255 39.2109 45.1641 39.2109L43.3122 39.2106V36.6328C43.3122 36.1713 42.9378 35.7969 42.4763 35.7969Z" fill="white"/>
<path fill-rule="evenodd" clip-rule="evenodd" d="M46.6273 28.3759C46.1658 28.3759 45.7913 28.7499 45.7913 29.2119V32.7405C44.7802 32.2798 43.6574 32.0228 42.4763 32.0228C38.0517 32.0228 34.4525 35.6219 34.4525 40.0465C34.4525 41.0704 34.6456 42.0502 34.9969 42.9517H19.5536C19.0921 42.9517 18.7177 43.3257 18.7177 43.7877C18.7177 44.2492 19.092 44.6236 19.5536 44.6236H35.8894C37.3396 46.7048 39.7511 48.0703 42.4763 48.0703C46.9008 48.0703 50.5 44.4711 50.5 40.0465C50.5 37.5049 49.3116 35.2361 47.4632 33.7657V29.2119C47.4632 28.75 47.0891 28.3759 46.6273 28.3759ZM36.1244 40.0465C36.1244 36.5441 38.9742 33.6946 42.4763 33.6946C45.9783 33.6946 48.8281 36.5441 48.8281 40.0465C48.8281 43.5489 45.9783 46.3984 42.4763 46.3984C38.9739 46.3984 36.1244 43.5489 36.1244 40.0465Z" fill="white"/>
<path d="M10.8359 39.0009C10.3745 39.0009 10 39.3749 10 39.8369V42.8492C10 43.8278 10.7958 44.6236 11.7744 44.6236H16.8836C17.3452 44.6236 17.7195 44.2492 17.7195 43.7877C17.7195 43.3257 17.3451 42.9517 16.8836 42.9517H11.7744C11.718 42.9517 11.6719 42.9056 11.6719 42.8492V39.8369C11.6719 39.3749 11.2974 39.0009 10.8359 39.0009Z" fill="white"/>
</g>
<defs>
<filter id="filter0_d" x="0" y="0" width="60.5" height="59.0703" filterUnits="userSpaceOnUse" color-interpolation-filters="sRGB">
<feFlood flood-opacity="0" result="BackgroundImageFix"/>
<feColorMatrix in="SourceAlpha" type="matrix" values="0 0 0 0 0 0 0 0 0 0 0 0 0 0 0 0 0 0 127 0"/>
<feOffset dy="1"/>
<feGaussianBlur stdDeviation="5"/>
<feColorMatrix type="matrix" values="0 0 0 0 0 0 0 0 0 0 0 0 0 0 0 0 0 0 0.5 0"/>
<feBlend mode="normal" in2="BackgroundImageFix" result="effect1_dropShadow"/>
<feBlend mode="normal" in="SourceGraphic" in2="effect1_dropShadow" result="shape"/>
</filter>
</defs>
</svg>
