<svg width="70" height="54" viewBox="0 0 70 54" fill="none" xmlns="http://www.w3.org/2000/svg">
<g filter="url(#filter0_d)">
<path d="M37.1176 32.0705C36.7972 31.851 36.3595 31.9332 36.1404 32.2543C35.7838 32.7766 35.3796 33.2721 34.9391 33.7271C34.7548 33.9174 34.6929 34.1951 34.7789 34.4458L36.0095 38.0388C36.131 38.3935 35.9845 38.7882 35.6609 38.9771L33.9081 40.0008C33.5846 40.1897 33.1696 40.1231 32.9211 39.8424L30.4054 37C30.2298 36.8015 29.9579 36.7188 29.7019 36.7856C28.8369 37.0115 27.9458 37.1327 27.0535 37.1461C26.7887 37.1501 26.5486 37.3027 26.4323 37.5408L24.7658 40.9533C24.6012 41.2902 24.219 41.4654 23.8567 41.37L21.8946 40.8523C21.5325 40.7568 21.286 40.4157 21.3084 40.0413L21.5363 36.2492C21.5522 35.9845 21.4184 35.7333 21.1898 35.5993C20.4196 35.1474 19.7037 34.6022 19.0622 33.979C18.8722 33.7944 18.5949 33.7323 18.3445 33.8184L14.7573 35.051C14.4031 35.1728 14.0091 35.026 13.8205 34.7019L12.7985 32.9463C12.6098 32.6223 12.6763 32.2066 12.9566 31.9577L15.7945 29.438C15.9926 29.2621 16.0752 28.9898 16.0085 28.7334C15.783 27.867 15.6619 26.9745 15.6486 26.0807C15.6447 25.8156 15.4923 25.5751 15.2545 25.4586L11.8477 23.7896C11.5113 23.6247 11.3364 23.242 11.4318 22.8791L11.9485 20.9139C12.0439 20.5512 12.3845 20.3043 12.7582 20.3268L16.5443 20.555C16.8085 20.571 17.0594 20.4368 17.1932 20.208C17.6443 19.4367 18.1886 18.7197 18.8109 18.0769C18.9952 17.8866 19.0572 17.6089 18.9712 17.3582L17.7406 13.7652C17.619 13.4105 17.7656 13.0158 18.0891 12.8269L19.8419 11.8032C20.1654 11.6143 20.5804 11.6809 20.8289 11.9616L23.3446 14.804C23.5202 15.0025 23.7921 15.0852 24.0481 15.0184C24.9131 14.7925 25.8042 14.6713 26.6966 14.6579C26.9614 14.6539 27.2014 14.5013 27.3177 14.2632L28.9843 10.8507C29.1488 10.5138 29.531 10.3387 29.8933 10.434L31.8554 10.9516C32.2175 11.0471 32.4639 11.3883 32.4416 11.7626L32.2137 15.5547C32.1978 15.8194 32.3316 16.0706 32.5602 16.2046C33.3302 16.6565 34.0461 17.2017 34.6878 17.825C34.8778 18.0096 35.1551 18.0716 35.4055 17.9855L38.9927 16.7529C39.3469 16.6312 39.7409 16.778 39.9295 17.102L40.9515 18.8576C41.1402 19.1816 41.0737 19.5973 40.7934 19.8462L37.9555 22.3659C37.7574 22.5418 37.6748 22.8141 37.7416 23.0707C37.9052 23.6991 38.0146 24.3455 38.0666 24.9918C38.0978 25.3794 38.4369 25.6683 38.8239 25.637C39.211 25.6059 39.4995 25.2661 39.4682 24.8785C39.4211 24.2952 39.3327 23.7119 39.2047 23.1389L41.7262 20.9002C42.506 20.2077 42.691 19.0503 42.1659 18.1483L41.1439 16.3927C40.6188 15.4907 39.5221 15.082 38.5359 15.4208L35.3487 16.5159C34.8179 16.035 34.2465 15.5997 33.6424 15.2164L33.8449 11.8473C33.9075 10.8051 33.2213 9.8556 32.2132 9.58966L30.2511 9.07211C29.2429 8.80622 28.1788 9.29411 27.7208 10.2319L26.2401 13.2638C25.526 13.2994 24.8146 13.3963 24.1161 13.5529L21.8809 11.0275C21.1897 10.2462 20.0341 10.0609 19.1336 10.5868L17.3808 11.6105C16.4802 12.1364 16.0722 13.2349 16.4104 14.2226L17.5038 17.4149C17.0236 17.9466 16.589 18.5189 16.2064 19.1239L12.8428 18.921C11.8023 18.8583 10.8542 19.5455 10.5887 20.5554L10.072 22.5206C9.80656 23.5303 10.2935 24.596 11.2299 25.0549L14.257 26.538C14.2926 27.2532 14.3893 27.9656 14.5457 28.6653L12.0242 30.9041C11.2441 31.5967 11.0591 32.754 11.5841 33.656L12.6061 35.4116C13.1312 36.3136 14.228 36.7223 15.2141 36.3836L18.4013 35.2884C18.932 35.7693 19.5035 36.2046 20.1076 36.5879L19.9051 39.957C19.8426 40.9992 20.5287 41.9487 21.5369 42.2147L23.4989 42.7322C24.5071 42.9981 25.5711 42.5102 26.0292 41.5724L27.5099 38.5405C28.2241 38.5049 28.9353 38.4081 29.6339 38.2514L31.8692 40.777C32.5605 41.5581 33.7161 41.7435 34.6166 41.2176L36.3694 40.1939C37.2699 39.668 37.678 38.5695 37.3398 37.5818L36.2464 34.3896C36.6277 33.9673 36.9816 33.5179 37.3014 33.0494C37.5204 32.7283 37.4383 32.29 37.1176 32.0705Z" fill="white"/>
<path d="M34.1033 26.2101C34.2185 26.2039 34.3258 26.1702 34.4191 26.1157C34.6397 25.9869 34.7822 25.7418 34.7674 25.4689C34.7003 24.226 34.3319 22.997 33.7019 21.9149C31.5068 18.1442 26.6581 16.8651 22.8933 19.0638C21.1023 20.1098 19.8112 21.7877 19.2579 23.7886C19.1542 24.1634 19.3736 24.5515 19.7477 24.6553C20.1219 24.759 20.5093 24.5395 20.613 24.1647C21.0679 22.5199 22.1292 21.1405 23.6015 20.2807C26.6964 18.4732 30.6825 19.5246 32.4871 22.6245C33.0125 23.5271 33.3073 24.5098 33.3633 25.5451C33.3842 25.9332 33.7155 26.231 34.1033 26.2101Z" fill="white"/>
<path d="M19.6734 26.6195C19.2925 26.6955 19.0454 27.0662 19.1212 27.4476C19.2918 28.3057 19.6033 29.1274 20.0469 29.8895C22.2421 33.6603 27.0908 34.9392 30.8555 32.7406C32.3034 31.895 33.4259 30.6389 34.1015 29.1078C34.2584 28.752 34.0978 28.3361 33.7426 28.1789C33.3875 28.0217 32.9722 28.1826 32.8152 28.5383C32.26 29.7962 31.3375 30.8286 30.1471 31.5238C27.0521 33.3313 23.0661 32.2798 21.2615 29.1799C20.8964 28.5528 20.6401 27.8773 20.5 27.1725C20.4242 26.7911 20.0541 26.5435 19.6734 26.6195Z" fill="white"/>
<path d="M56.2542 24.5353L54.293 25.2093C54.0004 24.9529 53.6903 24.7168 53.3658 24.5031L53.4904 22.4299C53.5384 21.6305 53.0121 20.9022 52.2389 20.6983L50.9496 20.3582C50.1764 20.1543 49.3602 20.5284 49.0089 21.2478L48.0978 23.1135C47.7103 23.1394 47.3243 23.1919 46.9436 23.2707L45.5683 21.7166C45.0379 21.1173 44.1516 20.9751 43.4609 21.3785L42.309 22.0512C41.6184 22.4546 41.3053 23.2972 41.5648 24.0547L42.2377 26.019C41.9817 26.3121 41.746 26.6227 41.5326 26.9477L39.4627 26.8228C38.6646 26.7749 37.9374 27.3019 37.7339 28.0763L37.3943 29.3677C37.1907 30.1422 37.5642 30.9596 38.2824 31.3115L40.1452 32.224C40.1807 32.7577 40.2665 33.2882 40.4015 33.8065C40.4995 34.1828 40.8835 34.4083 41.2593 34.3103C41.635 34.2121 41.8602 33.8275 41.7622 33.4511C41.6188 32.9004 41.542 32.3332 41.5335 31.7653C41.5295 31.5001 41.3772 31.2596 41.1394 31.1432L38.9004 30.0463C38.7822 29.9883 38.7207 29.8538 38.7542 29.7264L39.0938 28.435C39.1274 28.3076 39.2471 28.2209 39.3783 28.2287L41.8663 28.3787C42.1305 28.3947 42.3813 28.2605 42.5152 28.0317C42.8019 27.5416 43.1477 27.0859 43.5433 26.6774C43.7276 26.4871 43.7896 26.2094 43.7036 25.9586L42.8949 23.5977C42.8522 23.4731 42.9037 23.3344 43.0174 23.268L44.1692 22.5953C44.2828 22.5289 44.4288 22.5523 44.516 22.6509L46.1692 24.5189C46.3448 24.7173 46.6167 24.8001 46.8727 24.7333C47.4225 24.5896 47.9888 24.5126 48.5558 24.5041C48.8205 24.5002 49.0607 24.3476 49.177 24.1094L50.2721 21.8668C50.3299 21.7485 50.4642 21.6868 50.5915 21.7205L51.8808 22.0606C52.008 22.0942 52.0946 22.214 52.0868 22.3455L51.937 24.8375C51.9211 25.1022 52.0549 25.3534 52.2835 25.4874C52.7728 25.7746 53.2277 26.1209 53.6356 26.5172C53.8256 26.7018 54.1028 26.7638 54.3532 26.6777L56.7104 25.8677C56.8348 25.8249 56.9733 25.8765 57.0396 25.9904L57.7112 27.1441C57.7774 27.2579 57.7541 27.404 57.6557 27.4914L55.7907 29.1472C55.5925 29.3231 55.5099 29.5954 55.5766 29.8518C55.7201 30.4026 55.7969 30.9697 55.8054 31.5377C55.8094 31.8029 55.9617 32.0433 56.1995 32.1598L58.4385 33.2567C58.5567 33.3146 58.6182 33.4491 58.5846 33.5766L58.2451 34.868C58.2116 34.9954 58.0919 35.082 57.9606 35.0743L55.4726 34.9242C55.2084 34.9083 54.9575 35.0425 54.8237 35.2713C54.5369 35.7614 54.1912 36.217 53.7955 36.6255C53.6113 36.8159 53.5493 37.0935 53.6353 37.3443L54.444 39.7053C54.4867 39.8299 54.4352 39.9686 54.3215 40.035L53.1696 40.7077C53.056 40.774 52.9101 40.7506 52.8228 40.652L51.1697 38.7841C50.9941 38.5856 50.7222 38.5029 50.4662 38.5697C49.9164 38.7133 49.3501 38.7903 48.7831 38.7988C48.5183 38.8028 48.2781 38.9554 48.1619 39.1935L47.0668 41.4361C47.009 41.5545 46.8747 41.6161 46.7474 41.5825L45.4581 41.2424C45.3309 41.2088 45.2443 41.0889 45.2521 40.9574L45.4019 38.4655C45.4178 38.2007 45.284 37.9496 45.0554 37.8155C44.5661 37.5283 44.1112 37.182 43.7033 36.7858C43.5133 36.6012 43.236 36.5391 42.9857 36.6252L40.6285 37.4352C40.5041 37.478 40.3656 37.4264 40.2993 37.3126L39.6277 36.1588C39.5615 36.0451 39.5848 35.8989 39.6832 35.8115L39.7974 35.7101C40.0879 35.4521 40.1147 35.007 39.857 34.716C39.5994 34.425 39.1556 34.3983 38.8644 34.6563L38.7503 34.7577C38.1521 35.2889 38.0102 36.1766 38.4129 36.8684L39.0845 38.0221C39.4872 38.7138 40.3285 39.0274 41.0848 38.7675L43.046 38.0936C43.3386 38.35 43.6487 38.586 43.9732 38.7998L43.8485 40.873C43.8005 41.6725 44.3268 42.4007 45.1 42.6046L46.3894 42.9447C47.1626 43.1486 47.9787 42.7745 48.33 42.0551L49.2411 40.1894C49.6287 40.1635 50.0146 40.111 50.3953 40.0322L51.7707 41.5863C52.3012 42.1855 53.1875 42.3277 53.8782 41.9243L55.0301 41.2516C55.7207 40.8483 56.0338 40.0056 55.7743 39.2481L55.1014 37.2838C55.3574 36.9907 55.5931 36.6801 55.8065 36.3551L57.8764 36.4799C58.6745 36.5279 59.4016 36.0009 59.6052 35.2264L59.9448 33.935C60.1484 33.1606 59.7748 32.3431 59.0566 31.9913L57.1938 31.0787C57.168 30.6906 57.1156 30.304 57.0369 29.9227L58.5885 28.5451C59.1868 28.0139 59.3287 27.1262 58.926 26.4344L58.2544 25.2807C57.8518 24.589 57.0105 24.2755 56.2542 24.5353Z" fill="white"/>
<path d="M47.3946 29.4613C48.6003 28.7571 50.1531 29.1667 50.8562 30.3744C51.0518 30.7104 51.4823 30.8239 51.8177 30.628C52.1531 30.4321 52.2665 30.0009 52.0709 29.665C50.9773 27.7864 48.5617 27.1492 46.6862 28.2446C44.8106 29.3399 44.1744 31.7593 45.268 33.6379C46.3616 35.5164 48.7772 36.1536 50.6528 35.0583C51.4124 34.6146 51.9882 33.9496 52.3178 33.1351C52.4637 32.7746 52.2902 32.364 51.9303 32.2178C51.5704 32.0717 51.1603 32.2455 51.0145 32.6059C50.8027 33.129 50.4327 33.5564 49.9444 33.8415C48.7387 34.5457 47.1859 34.1361 46.4829 32.9284C45.7798 31.7206 46.1888 30.1654 47.3946 29.4613Z" fill="white"/>
<path d="M30.5749 23.741C29.3852 21.6973 26.7571 21.0041 24.7167 22.1957C22.6762 23.3874 21.9841 26.0197 23.1738 28.0633C24.3636 30.1071 26.9916 30.8003 29.0321 29.6086C31.0726 28.417 31.7646 25.7847 30.5749 23.741ZM24.3886 27.3539C23.5894 25.9811 24.0544 24.2129 25.425 23.4124C26.7956 22.612 28.561 23.0777 29.3602 24.4505C30.1593 25.8232 29.6944 27.5915 28.3238 28.3919C26.953 29.1925 25.1877 28.7267 24.3886 27.3539Z" fill="white"/>
</g>
<defs>
<filter id="filter0_d" x="0" y="0" width="70" height="54" filterUnits="userSpaceOnUse" color-interpolation-filters="sRGB">
<feFlood flood-opacity="0" result="BackgroundImageFix"/>
<feColorMatrix in="SourceAlpha" type="matrix" values="0 0 0 0 0 0 0 0 0 0 0 0 0 0 0 0 0 0 127 0"/>
<feOffset dy="1"/>
<feGaussianBlur stdDeviation="5"/>
<feColorMatrix type="matrix" values="0 0 0 0 0 0 0 0 0 0 0 0 0 0 0 0 0 0 0.5 0"/>
<feBlend mode="normal" in2="BackgroundImageFix" result="effect1_dropShadow"/>
<feBlend mode="normal" in="SourceGraphic" in2="effect1_dropShadow" result="shape"/>
</filter>
</defs>
</svg>
