<svg viewBox="0 -110 511.99253 511" xmlns="http://www.w3.org/2000/svg"><path d="m509.21875 139.285156-57.867188-57.867187c-25.773437-25.769531-56.523437-46.425781-90.25-60.269531-36.289062-14.898438-75.746093-21.871094-114.941406-20.476563-38.269531 1.359375-76.214844 10.664063-110.683594 27.371094-27.714843 13.445312-53.058593 31.597656-74.832031 53.375l-57.867187 57.867187c-3.703125 3.699219-3.703125 9.71875 0 13.410156l57.867187 57.867188c27.5 27.503906 59.421875 47.9375 93.488281 61.398438.128907.058593.238282.171874.367188.222656 2.871094 1.136718 5.777344 2.152344 8.675781 3.1875.554688.195312 1.101563.417968 1.65625.613281 29.589844 10.34375 60.363281 15.554687 91.15625 15.554687 30.785157 0 61.570313-5.210937 91.164063-15.5625.539062-.1875 1.070312-.402343 1.609375-.589843 2.914062-1.042969 5.828125-2.058594 8.714843-3.203125.136719-.050782.242188-.164063.371094-.222656 34.054688-13.460938 65.976563-33.894532 93.480469-61.398438l57.867187-57.867188c3.726563-3.703124 3.726563-9.71875.023438-13.410156zm-253.222656 83.617188c-42.40625 0-76.917969-34.5-76.917969-76.917969 0-42.414063 34.511719-76.917969 76.917969-76.917969 42.410156 0 76.917968 34.503906 76.917968 76.917969 0 42.417969-34.507812 76.917969-76.917968 76.917969zm-235.761719-76.910156 52.492187-52.5c14.847657-14.84375 31.1875-27.628907 48.664063-38.296876-17.929687 26.53125-27.773437 57.996094-27.773437 90.78125 0 32.714844 9.800781 64.105469 27.664062 90.609376-17.28125-10.519532-33.621094-23.175782-48.554688-38.109376zm419.035156 52.484374c-14.933593 14.933594-31.265625 27.597657-48.554687 38.109376 17.855468-26.492188 27.664062-57.894532 27.664062-90.609376 0-32.785156-9.84375-64.25-27.773437-90.78125 17.46875 10.660157 33.816406 23.453126 48.664062 38.296876l52.492188 52.5zm0 0"/><path d="m315.824219 145.984375c0 33.042969-26.785157 59.828125-59.828125 59.828125-33.039063 0-59.824219-26.785156-59.824219-59.828125 0-33.039063 26.785156-59.824219 59.824219-59.824219 33.042968 0 59.828125 26.785156 59.828125 59.824219zm0 0"/></svg>