<svg viewBox="0 -110 511.99573 511" xmlns="http://www.w3.org/2000/svg"><path d="m255.996094 291.425781c-70.746094 0-141.492188-26.929687-195.351563-80.789062l-57.867187-57.867188c-3.703125-3.699219-3.703125-9.71875 0-13.410156l57.867187-57.867187c52.175781-52.183594 121.5625-80.925782 195.351563-80.925782 73.800781 0 143.171875 28.734375 195.355468 80.925782l57.867188 57.867187c3.703125 3.703125 3.703125 9.71875 0 13.410156l-57.867188 57.867188c-53.859374 53.851562-124.605468 80.789062-195.355468 80.789062zm-235.761719-145.363281 52.492187 52.492188c101.0625 101.050781 265.488282 101.050781 366.542969 0l52.492188-52.492188-52.492188-52.503906c-48.957031-48.960938-114.035156-75.917969-183.273437-75.917969-69.222656 0-134.3125 26.957031-183.269532 75.917969zm0 0"/><path d="m255.996094 222.96875c-42.40625 0-76.917969-34.5-76.917969-76.917969 0-42.414062 34.511719-76.917969 76.917969-76.917969 42.410156 0 76.917968 34.503907 76.917968 76.917969 0 42.417969-34.507812 76.917969-76.917968 76.917969zm0-136.742188c-32.988282 0-59.824219 26.84375-59.824219 59.824219s26.835937 59.828125 59.824219 59.828125c32.992187 0 59.828125-26.847656 59.828125-59.828125s-26.835938-59.824219-59.828125-59.824219zm0 0"/><path d="m255.996094 291.605469c-34.378906 0-68.769532-6.453125-101.496094-19.355469-.847656-.335938-1.632812-.804688-2.332031-1.386719-37.210938-30.988281-58.550781-76.480469-58.550781-124.8125 0-48.328125 21.339843-93.828125 58.550781-124.8125.699219-.578125 1.484375-1.050781 2.332031-1.382812 65.449219-25.808594 137.539062-25.808594 202.988281 0 .84375.332031 1.632813.804687 2.332031 1.382812 37.210938 30.992188 58.550782 76.484375 58.550782 124.8125 0 48.332031-21.339844 93.832031-58.550782 124.8125-.699218.582031-1.488281 1.050781-2.332031 1.386719-32.71875 12.902344-67.109375 19.355469-101.492187 19.355469zm-93.933594-34.75c60.628906 23.539062 127.242188 23.539062 187.878906 0 32.65625-27.707031 51.347656-68.011719 51.347656-110.804688 0-42.789062-18.703124-83.09375-51.347656-110.804687-60.636718-23.527344-127.25-23.527344-187.878906 0-32.65625 27.710937-51.355469 68.015625-51.355469 110.804687 0 42.792969 18.699219 83.089844 51.355469 110.804688zm0 0"/></svg>