<svg width="14" height="14" viewBox="0 0 14 14" fill="none" xmlns="http://www.w3.org/2000/svg">
<path d="M13.8177 3.86444C13.6962 3.57291 13.5503 3.34193 13.3801 3.17184L10.828 0.619721C10.658 0.449722 10.427 0.303827 10.1354 0.182226C9.84386 0.0607525 9.57643 0 9.33342 0H0.875049C0.63207 0 0.425422 0.0850153 0.255264 0.255174C0.0851054 0.425236 0.00012207 0.631852 0.00012207 0.874958V13.125C0.00012207 13.3682 0.0851054 13.5748 0.255264 13.7449C0.425422 13.9149 0.63207 14 0.875049 14H13.1251C13.3683 14 13.5749 13.9149 13.745 13.7449C13.915 13.5748 14 13.3682 14 13.125V4.66668C14 4.42354 13.9392 4.1562 13.8177 3.86444ZM5.83346 1.45822C5.83346 1.37924 5.86235 1.31102 5.9201 1.25317C5.97779 1.19558 6.04617 1.16672 6.12515 1.16672H7.87523C7.95402 1.16672 8.02237 1.19551 8.08009 1.25317C8.13797 1.31102 8.16683 1.37924 8.16683 1.45822V4.37492C8.16683 4.45403 8.13778 4.52235 8.08009 4.5801C8.02237 4.63766 7.95402 4.66655 7.87523 4.66655H6.12515C6.04617 4.66655 5.97776 4.63775 5.9201 4.5801C5.86235 4.52225 5.83346 4.45403 5.83346 4.37492V1.45822V1.45822ZM10.5002 12.8334H3.50002V9.33332H10.5002V12.8334ZM12.8337 12.8334H11.6668H11.6666V9.04163C11.6666 8.79846 11.5816 8.59197 11.4115 8.42175C11.2414 8.25165 11.0348 8.16654 10.7918 8.16654H3.20839C2.96531 8.16654 2.75867 8.25165 2.58851 8.42175C2.41845 8.59184 2.33337 8.79846 2.33337 9.04163V12.8334H1.16668V1.16659H2.33333V4.95831C2.33333 5.20141 2.41832 5.40793 2.58848 5.57809C2.75863 5.74816 2.96528 5.83327 3.20836 5.83327H8.45856C8.7015 5.83327 8.90834 5.74816 9.07821 5.57809C9.24821 5.40803 9.33342 5.20141 9.33342 4.95831V1.16659C9.42453 1.16659 9.54294 1.19692 9.68893 1.25767C9.83489 1.31839 9.93813 1.37914 9.99889 1.4399L12.5603 4.00121C12.621 4.06196 12.6818 4.1669 12.7425 4.3157C12.8034 4.46463 12.8337 4.58163 12.8337 4.66668V12.8334H12.8337Z" fill="#C7442A"/>
</svg>
