<svg viewBox="0 0 512.00219 512" xmlns="http://www.w3.org/2000/svg"><path d="m256.445312 409.804688c-70.625 0-141.25-26.886719-195.015624-80.652344l-57.765626-57.765625c-1.605468-1.605469-2.78125-4.453125-2.773437-6.722657.007813-2.535156 1.003906-4.914062 2.804687-6.699218l57.734376-57.742188c52.085937-52.09375 121.34375-80.777344 195.015624-80.777344 73.671876 0 142.921876 28.683594 195.015626 80.777344l57.769531 57.769532c1.59375 1.59375 2.761719 4.410156 2.773437 6.664062.007813 2.539062-.984375 4.929688-2.773437 6.722656l-57.769531 57.765625c-53.765626 53.773438-124.390626 80.660157-195.015626 80.660157zm-235.351562-145.117188 52.398438 52.402344c100.886718 100.878906 265.027343 100.878906 365.90625 0l52.402343-52.402344-52.402343-52.398438c-48.878907-48.871093-113.847657-75.78125-182.953126-75.78125-69.105468 0-134.082031 26.910157-182.953124 75.78125zm0 0"/><path d="m256.054688 332.738281c-42.335938 0-76.785157-34.453125-76.785157-76.785156 0-13.5 3.558594-26.773437 10.28125-38.394531 2.363281-4.085938 7.574219-5.46875 11.652344-3.113282 4.085937 2.363282 5.476563 7.578126 3.113281 11.65625-5.21875 9.035157-7.984375 19.355469-7.984375 29.859376 0 32.933593 26.789063 59.722656 59.722657 59.722656 32.929687 0 59.71875-26.789063 59.71875-59.722656 0-32.933594-26.789063-59.722657-59.71875-59.722657-7.75 0-15.289063 1.460938-22.398438 4.335938-4.375 1.765625-9.347656-.34375-11.105469-4.703125-1.777343-4.367188.339844-9.339844 4.699219-11.105469 9.164062-3.722656 18.855469-5.597656 28.804688-5.597656 42.332031 0 76.785156 34.449219 76.785156 76.785156 0 42.332031-34.445313 76.785156-76.785156 76.785156zm0 0"/><path d="m8.535156 511.902344c-2.183594 0-4.371094-.835938-6.035156-2.5-3.332031-3.335938-3.332031-8.730469 0-12.066406l494.835938-494.832032c3.335937-3.335937 8.726562-3.335937 12.0625 0 3.335937 3.335938 3.335937 8.726563 0 12.0625l-494.832032 494.835938c-1.664062 1.664062-3.847656 2.5-6.03125 2.5zm0 0"/><path d="m256.054688 409.519531c-79.976563 0-145.039063-65.058593-145.039063-145.035156s65.0625-145.039063 145.039063-145.039063c79.972656 0 145.035156 65.0625 145.035156 145.039063s-65.0625 145.035156-145.035156 145.035156zm0-273.011719c-70.566407 0-127.976563 57.410157-127.976563 127.976563 0 70.5625 57.410156 127.972656 127.976563 127.972656 70.5625 0 127.972656-57.410156 127.972656-127.972656 0-70.566406-57.410156-127.976563-127.972656-127.976563zm0 0"/></svg>