<svg width="18" height="18" viewBox="0 0 18 18" fill="none" xmlns="http://www.w3.org/2000/svg">
<path d="M1.0506 2.46775L2.11768 4.33502C2.15367 4.39812 2.21391 4.44377 2.28436 4.46144L3.27989 4.71032L6.69432 8.12475L7.0716 7.74759L3.60372 4.27982C3.56959 4.24558 3.5268 4.22133 3.47994 4.20959L2.52337 3.9696L1.61487 2.37887L2.39377 1.59996L3.98516 2.50934L4.22526 3.46591C4.2369 3.51288 4.26126 3.55578 4.29539 3.58991L7.76326 7.05779L8.14042 6.68052L4.72599 3.26608L4.47711 2.27111C4.45944 2.20055 4.41379 2.14019 4.35069 2.10409L2.48332 1.03713C2.37918 0.977868 2.24815 0.995425 2.16322 1.08003L1.09625 2.1471C1.01044 2.23149 0.991785 2.36274 1.0506 2.46775Z" fill="#3F8C97"/>
<path d="M12.1411 6.25738L6.27249 12.126L5.89522 11.7488L11.7639 5.88022L12.1411 6.25738Z" fill="#3F8C97"/>
<path d="M5.24538 12.3337C5.19709 12.2534 5.1104 12.2043 5.01669 12.2043H3.41619C3.32258 12.2043 3.23578 12.2534 3.18761 12.3337L2.3873 13.6674C2.3365 13.7519 2.3365 13.8576 2.3873 13.9422L3.18761 15.2759C3.23578 15.3562 3.32258 15.4053 3.41619 15.4053H5.01669C5.1104 15.4053 5.19709 15.3562 5.24538 15.2759L6.04557 13.9422C6.09638 13.8576 6.09638 13.7519 6.04557 13.6674L5.24538 12.3337ZM4.8658 14.8718H3.56718L2.92698 13.8048L3.56718 12.7377H4.8658L5.506 13.8048L4.8658 14.8718Z" fill="#3F8C97"/>
<path d="M13.8196 7.40263C15.5814 7.40856 17.0146 5.98507 17.0205 4.22326C17.0214 3.95507 16.9884 3.68797 16.9225 3.42801C16.8869 3.28502 16.7422 3.198 16.5992 3.23355C16.5522 3.2453 16.5094 3.26955 16.4752 3.30367L14.8147 4.9631L13.4972 4.52404L13.0578 3.20689L14.7183 1.54604C14.8225 1.44179 14.8224 1.27291 14.7181 1.16877C14.6838 1.13442 14.6405 1.11006 14.5932 1.09843C12.8846 0.665739 11.1489 1.7 10.7163 3.40847C10.6505 3.66767 10.6177 3.93411 10.6186 4.20153C10.6193 4.41157 10.6409 4.62094 10.6834 4.82659L4.84143 10.6685C4.63579 10.626 4.42641 10.6044 4.21649 10.6036C2.44853 10.6036 1.01538 12.0368 1.01538 13.8047C1.01538 15.5726 2.44853 17.0057 4.21649 17.0057C5.98433 17.0057 7.41749 15.5726 7.41749 13.8047C7.41683 13.5947 7.3951 13.3853 7.35263 13.1797L8.75122 11.7811L9.36288 12.3928C9.46713 12.4969 9.63591 12.4969 9.74016 12.3928L9.87348 12.2593C9.99046 12.1431 10.1795 12.1431 10.2965 12.2593C10.4134 12.3759 10.4136 12.565 10.2971 12.6819L10.1632 12.8158C10.059 12.9199 10.059 13.0888 10.1632 13.1929L13.3453 16.3751C14.1823 17.2197 15.5454 17.2258 16.39 16.3889C17.2346 15.5519 17.2407 14.1887 16.4038 13.3442C16.3993 13.3396 16.3947 13.3349 16.39 13.3303L13.2079 10.1483C13.1038 10.0442 12.9349 10.0442 12.8308 10.1483L12.6974 10.2817C12.5803 10.398 12.3914 10.398 12.2743 10.2817C12.1575 10.1651 12.1572 9.97593 12.2737 9.85917L12.4077 9.72519C12.5119 9.62105 12.5119 9.45216 12.4077 9.34803L11.7961 8.73636L13.1946 7.33778C13.4003 7.38024 13.6097 7.40197 13.8196 7.40263ZM14.8677 16.4723C14.6739 16.472 14.4817 16.4369 14.3003 16.3688L16.3837 14.2854C16.6981 15.1217 16.275 16.0544 15.4387 16.3688C15.2563 16.4374 15.0628 16.4725 14.8677 16.4723ZM11.8457 9.53929C11.5503 9.89166 11.5966 10.4169 11.9489 10.7121C12.2586 10.9717 12.7099 10.9715 13.0193 10.7114L16.0129 13.7076C16.0454 13.7402 16.0758 13.7745 16.1052 13.8094L13.8244 16.0902C13.7894 16.0609 13.7551 16.0305 13.7225 15.9979L10.7266 13.0018C11.022 12.6494 10.9757 12.1242 10.6233 11.8289C10.3136 11.5693 9.86218 11.5696 9.55284 11.8296L9.12607 11.4028L11.4188 9.11352L11.8457 9.53929ZM12.9228 6.85637L6.87144 12.9065C6.80505 12.9728 6.77838 13.0691 6.80099 13.16C7.16696 14.5972 6.29851 16.059 4.86119 16.4249C3.42397 16.7908 1.96218 15.9224 1.59621 14.4851C1.23035 13.0479 2.0988 11.5861 3.53612 11.2201C3.9709 11.1095 4.42641 11.1095 4.86119 11.2201C4.95216 11.2424 5.04818 11.2157 5.11468 11.1498L11.1646 5.0995C11.2309 5.03322 11.2576 4.93698 11.2348 4.84612C10.8713 3.4257 11.7281 1.9796 13.1486 1.61605C13.417 1.54747 13.6946 1.52113 13.9711 1.53836L12.564 2.94605C12.4926 3.01737 12.4675 3.12305 12.4995 3.21885L13.0329 4.81945C13.0596 4.89901 13.1221 4.96156 13.2018 4.98801L14.8024 5.52154C14.8981 5.55348 15.0037 5.52857 15.0752 5.45724L16.4823 4.0501C16.4855 4.10101 16.4872 4.15138 16.4872 4.20153C16.4946 5.66727 15.3125 6.86152 13.8468 6.8691C13.6202 6.87019 13.3944 6.84232 13.1749 6.78614C13.0839 6.76342 12.9877 6.78998 12.9214 6.85626L12.9228 6.85637Z" fill="#3F8C97"/>
<path d="M14.8087 14.4164L14.4315 14.7936L11.764 12.1262L12.1412 11.7489L14.8087 14.4164Z" fill="#3F8C97"/>
<path d="M1.0506 2.46775L0.94154 2.52884L0.942075 2.52977L1.0506 2.46775ZM2.11768 4.33502L2.22625 4.27308L2.2262 4.273L2.11768 4.33502ZM2.28436 4.46144L2.25396 4.58268L2.25405 4.5827L2.28436 4.46144ZM3.27989 4.71032L3.36828 4.62193C3.35226 4.60591 3.33219 4.59454 3.31021 4.58905L3.27989 4.71032ZM6.69432 8.12475L6.60593 8.21314C6.65475 8.26195 6.73388 8.26195 6.7827 8.21315L6.69432 8.12475ZM7.0716 7.74759L7.15997 7.83599C7.18342 7.81255 7.19659 7.78075 7.1966 7.7476C7.1966 7.71444 7.18343 7.68264 7.15998 7.6592L7.0716 7.74759ZM3.60372 4.27982L3.51519 4.36807L3.51533 4.36821L3.60372 4.27982ZM3.47994 4.20959L3.44952 4.33083L3.44955 4.33084L3.47994 4.20959ZM2.52337 3.9696L2.41482 4.03159C2.43171 4.06116 2.45993 4.08256 2.49295 4.09084L2.52337 3.9696ZM1.61487 2.37887L1.52648 2.29048C1.48663 2.33033 1.47837 2.39192 1.50632 2.44086L1.61487 2.37887ZM2.39377 1.59996L2.45579 1.49143C2.40685 1.46346 2.34524 1.47171 2.30538 1.51157L2.39377 1.59996ZM3.98516 2.50934L4.1064 2.47891C4.09812 2.4459 4.07673 2.4177 4.04718 2.40081L3.98516 2.50934ZM4.22526 3.46591L4.3466 3.43586L4.3465 3.43548L4.22526 3.46591ZM4.29539 3.58991L4.38377 3.50152L4.29539 3.58991ZM7.76326 7.05779L7.67487 7.14618C7.69832 7.16962 7.73012 7.18279 7.76327 7.18279C7.79643 7.18279 7.82822 7.16961 7.85166 7.14616L7.76326 7.05779ZM8.14042 6.68052L8.22883 6.76889C8.27763 6.72007 8.27762 6.64094 8.22881 6.59213L8.14042 6.68052ZM4.72599 3.26608L4.60473 3.29641C4.61022 3.31839 4.62159 3.33845 4.6376 3.35447L4.72599 3.26608ZM4.47711 2.27111L4.59837 2.24077L4.59837 2.24074L4.47711 2.27111ZM4.35069 2.10409L4.41277 1.99559L4.41271 1.99555L4.35069 2.10409ZM2.48332 1.03713L2.54533 0.928592L2.54514 0.928482L2.48332 1.03713ZM2.16322 1.08003L2.075 0.991472L2.07482 0.991648L2.16322 1.08003ZM1.09625 2.1471L1.1839 2.23623L1.18465 2.23549L1.09625 2.1471ZM12.1411 6.25738L12.2294 6.34577C12.2783 6.29695 12.2783 6.21781 12.2294 6.16899L12.1411 6.25738ZM6.27249 12.126L6.1841 12.2144C6.20754 12.2379 6.23934 12.251 6.27249 12.251C6.30564 12.251 6.33744 12.2379 6.36088 12.2144L6.27249 12.126ZM5.89522 11.7488L5.80683 11.6604C5.78339 11.6838 5.77022 11.7156 5.77022 11.7488C5.77022 11.7819 5.78339 11.8137 5.80683 11.8372L5.89522 11.7488ZM11.7639 5.88022L11.8523 5.79183C11.8035 5.74301 11.7243 5.74301 11.6755 5.79183L11.7639 5.88022ZM5.24538 12.3337L5.35256 12.2694L5.35251 12.2693L5.24538 12.3337ZM3.18761 12.3337L3.29479 12.398L3.29481 12.398L3.18761 12.3337ZM2.3873 13.6674L2.49443 13.7318L2.49449 13.7317L2.3873 13.6674ZM2.3873 13.9422L2.49449 13.8779L2.49447 13.8779L2.3873 13.9422ZM3.18761 15.2759L3.08042 15.3403L3.08045 15.3403L3.18761 15.2759ZM5.24538 15.2759L5.35247 15.3404L5.35256 15.3403L5.24538 15.2759ZM6.04557 13.9422L5.93841 13.8779L5.93838 13.8779L6.04557 13.9422ZM6.04557 13.6674L5.93838 13.7317L5.93844 13.7318L6.04557 13.6674ZM4.8658 14.8718V14.9968C4.90971 14.9968 4.95039 14.9738 4.97298 14.9361L4.8658 14.8718ZM3.56718 14.8718L3.46 14.9361C3.48259 14.9738 3.52328 14.9968 3.56718 14.9968V14.8718ZM2.92698 13.8048L2.8198 13.7405C2.79605 13.7801 2.79605 13.8296 2.8198 13.8691L2.92698 13.8048ZM3.56718 12.7377V12.6127C3.52327 12.6127 3.48259 12.6358 3.46 12.6734L3.56718 12.7377ZM4.8658 12.7377L4.97299 12.6734C4.9504 12.6358 4.90971 12.6127 4.8658 12.6127V12.7377ZM5.506 13.8048L5.61318 13.8691C5.63694 13.8296 5.63694 13.7801 5.61319 13.7405L5.506 13.8048ZM13.8196 7.40263L13.82 7.27763H13.82L13.8196 7.40263ZM17.0205 4.22326L17.1455 4.22368V4.22367L17.0205 4.22326ZM16.9225 3.42801L16.8012 3.45817L16.8013 3.45874L16.9225 3.42801ZM16.5992 3.23355L16.569 3.11225L16.5689 3.11229L16.5992 3.23355ZM16.4752 3.30367L16.387 3.21514L16.3868 3.21526L16.4752 3.30367ZM14.8147 4.9631L14.7752 5.08169C14.8201 5.09665 14.8696 5.08497 14.903 5.05152L14.8147 4.9631ZM13.4972 4.52404L13.3786 4.5636C13.3911 4.60092 13.4203 4.6302 13.4577 4.64263L13.4972 4.52404ZM13.0578 3.20689L12.9694 3.11851C12.9359 3.15199 12.9242 3.20152 12.9392 3.24644L13.0578 3.20689ZM14.7183 1.54604L14.8067 1.63442L14.8068 1.63438L14.7183 1.54604ZM14.7181 1.16877L14.6297 1.25716L14.6298 1.2572L14.7181 1.16877ZM14.5932 1.09843L14.5625 1.2196L14.5634 1.21981L14.5932 1.09843ZM10.7163 3.40847L10.8374 3.4392L10.8374 3.43916L10.7163 3.40847ZM10.6186 4.20153L10.7436 4.20114V4.20112L10.6186 4.20153ZM10.6834 4.82659L10.7718 4.91498C10.8016 4.88521 10.8144 4.84246 10.8059 4.80124L10.6834 4.82659ZM4.84143 10.6685L4.81615 10.7909C4.85735 10.7994 4.90007 10.7866 4.92982 10.7569L4.84143 10.6685ZM4.21649 10.6036L4.21695 10.4786H4.21649V10.6036ZM7.41749 13.8047H7.54249L7.54248 13.8043L7.41749 13.8047ZM7.35263 13.1797L7.26424 13.0913C7.23449 13.121 7.22171 13.1637 7.23021 13.2049L7.35263 13.1797ZM8.75122 11.7811L8.8396 11.6927C8.79079 11.6439 8.71164 11.6439 8.66283 11.6927L8.75122 11.7811ZM9.36288 12.3928L9.2745 12.4811L9.27454 12.4812L9.36288 12.3928ZM9.74016 12.3928L9.8285 12.4812L9.82858 12.4811L9.74016 12.3928ZM9.87348 12.2593L9.78539 12.1706L9.78506 12.171L9.87348 12.2593ZM10.2965 12.2593L10.3848 12.1708L10.3846 12.1706L10.2965 12.2593ZM10.2971 12.6819L10.3855 12.7703L10.3856 12.7702L10.2971 12.6819ZM10.1632 12.8158L10.2516 12.9042L10.1632 12.8158ZM10.1632 13.1929L10.0748 13.2813L10.1632 13.1929ZM13.3453 16.3751L13.4341 16.2871L13.4337 16.2867L13.3453 16.3751ZM16.39 16.3889L16.478 16.4777L16.478 16.4777L16.39 16.3889ZM16.4038 13.3442L16.3143 13.4315L16.315 13.4321L16.4038 13.3442ZM16.39 13.3303L16.4784 13.2419L16.4784 13.2419L16.39 13.3303ZM13.2079 10.1483L13.1195 10.2367L13.1195 10.2367L13.2079 10.1483ZM12.8308 10.1483L12.7424 10.0599L12.8308 10.1483ZM12.6974 10.2817L12.7855 10.3703L12.7858 10.37L12.6974 10.2817ZM12.2743 10.2817L12.186 10.3701L12.1862 10.3703L12.2743 10.2817ZM12.2737 9.85917L12.1854 9.77079L12.1853 9.77087L12.2737 9.85917ZM12.4077 9.72519L12.3193 9.6368L12.4077 9.72519ZM12.4077 9.34803L12.3193 9.43641L12.4077 9.34803ZM11.7961 8.73636L11.7077 8.64797C11.6842 8.67141 11.6711 8.70321 11.6711 8.73636C11.6711 8.76951 11.6842 8.8013 11.7077 8.82475L11.7961 8.73636ZM13.1946 7.33778L13.2199 7.21536C13.1787 7.20685 13.136 7.21964 13.1063 7.24939L13.1946 7.33778ZM14.8677 16.4723L14.8675 16.5973H14.8675L14.8677 16.4723ZM14.3003 16.3688L14.212 16.2804C14.1819 16.3105 14.1692 16.3537 14.1782 16.3952C14.1872 16.4368 14.2166 16.4709 14.2564 16.4858L14.3003 16.3688ZM16.3837 14.2854L16.5007 14.2414C16.4857 14.2016 16.4516 14.1722 16.4101 14.1632C16.3686 14.1542 16.3253 14.1669 16.2953 14.197L16.3837 14.2854ZM15.4387 16.3688L15.4827 16.4858L15.4827 16.4858L15.4387 16.3688ZM11.8457 9.53929L11.9414 9.6196C11.9831 9.5699 11.9799 9.49659 11.9339 9.45079L11.8457 9.53929ZM11.9489 10.7121L12.0292 10.6163L11.9489 10.7121ZM13.0193 10.7114L13.1077 10.623C13.0619 10.5771 12.9885 10.574 12.9388 10.6157L13.0193 10.7114ZM16.0129 13.7076L16.1014 13.6194L16.1013 13.6193L16.0129 13.7076ZM16.1052 13.8094L16.1936 13.8978C16.2395 13.8519 16.2426 13.7785 16.2008 13.7289L16.1052 13.8094ZM13.8244 16.0902L13.7442 16.186C13.7938 16.2276 13.867 16.2244 13.9128 16.1786L13.8244 16.0902ZM13.7225 15.9979L13.6341 16.0863L13.6341 16.0863L13.7225 15.9979ZM10.7266 13.0018L10.6308 12.9215C10.5892 12.9711 10.5924 13.0444 10.6382 13.0902L10.7266 13.0018ZM10.6233 11.8289L10.543 11.9247L10.543 11.9247L10.6233 11.8289ZM9.55284 11.8296L9.46445 11.918C9.5103 11.9638 9.58361 11.967 9.63326 11.9253L9.55284 11.8296ZM9.12607 11.4028L9.03775 11.3144C9.01428 11.3378 9.00109 11.3696 9.00107 11.4028C9.00106 11.4359 9.01423 11.4678 9.03769 11.4912L9.12607 11.4028ZM11.4188 9.11352L11.5071 9.02502C11.4583 8.97634 11.3792 8.97636 11.3305 9.02507L11.4188 9.11352ZM12.9228 6.85637L13.0112 6.94476C13.0457 6.91025 13.057 6.85879 13.0401 6.813C13.0231 6.76722 12.9811 6.73548 12.9324 6.73174L12.9228 6.85637ZM6.87144 12.9065L6.95975 12.995L6.95982 12.9949L6.87144 12.9065ZM6.80099 13.16L6.67968 13.1902L6.67985 13.1909L6.80099 13.16ZM4.86119 16.4249L4.83035 16.3037L4.83034 16.3037L4.86119 16.4249ZM1.59621 14.4851L1.47508 14.5159L1.47508 14.5159L1.59621 14.4851ZM3.53612 11.2201L3.5053 11.099L3.50528 11.099L3.53612 11.2201ZM4.86119 11.2201L4.83036 11.3413L4.83146 11.3415L4.86119 11.2201ZM5.11468 11.1498L5.2027 11.2385L5.20307 11.2382L5.11468 11.1498ZM11.1646 5.0995L11.0762 5.01111L11.0762 5.01111L11.1646 5.0995ZM11.2348 4.84612L11.356 4.81566L11.3559 4.81513L11.2348 4.84612ZM13.1486 1.61605L13.1176 1.49494L13.1176 1.49495L13.1486 1.61605ZM13.9711 1.53836L14.0595 1.62673C14.0943 1.59197 14.1054 1.54009 14.088 1.49413C14.0707 1.44816 14.028 1.41665 13.9789 1.4136L13.9711 1.53836ZM12.564 2.94605L12.6523 3.0345L12.6524 3.03442L12.564 2.94605ZM12.4995 3.21885L12.6181 3.17933L12.6181 3.17932L12.4995 3.21885ZM13.0329 4.81945L12.9143 4.85897L12.9144 4.85918L13.0329 4.81945ZM13.2018 4.98801L13.2413 4.86942L13.2412 4.86937L13.2018 4.98801ZM14.8024 5.52154L14.842 5.40297L14.8419 5.40296L14.8024 5.52154ZM15.0752 5.45724L15.1635 5.54569L15.1636 5.54563L15.0752 5.45724ZM16.4823 4.0501L16.6071 4.0423C16.604 3.99325 16.5725 3.95055 16.5265 3.93318C16.4806 3.9158 16.4287 3.92696 16.3939 3.96171L16.4823 4.0501ZM16.4872 4.20153H16.3622L16.3622 4.20217L16.4872 4.20153ZM13.8468 6.8691L13.8474 6.99409H13.8474L13.8468 6.8691ZM13.1749 6.78614L13.2059 6.66504L13.2052 6.66486L13.1749 6.78614ZM12.9214 6.85626L12.833 6.76787C12.7985 6.80239 12.7872 6.85384 12.8042 6.89963C12.8211 6.94541 12.8631 6.97715 12.9118 6.98089L12.9214 6.85626ZM14.8087 14.4164L14.8971 14.5048C14.9206 14.4813 14.9337 14.4495 14.9337 14.4164C14.9337 14.3832 14.9206 14.3514 14.8971 14.328L14.8087 14.4164ZM14.4315 14.7936L14.3431 14.882C14.3665 14.9055 14.3983 14.9186 14.4315 14.9186C14.4646 14.9186 14.4964 14.9055 14.5198 14.882L14.4315 14.7936ZM11.764 12.1262L11.6756 12.0378C11.6268 12.0866 11.6268 12.1658 11.6756 12.2146L11.764 12.1262ZM12.1412 11.7489L12.2296 11.6605C12.2061 11.6371 12.1743 11.6239 12.1412 11.6239C12.108 11.6239 12.0762 11.6371 12.0528 11.6605L12.1412 11.7489ZM0.942075 2.52977L2.00915 4.39704L2.2262 4.273L1.15913 2.40573L0.942075 2.52977ZM2.0091 4.39696C2.062 4.4897 2.15051 4.55674 2.25396 4.58268L2.31477 4.34019C2.27732 4.3308 2.24533 4.30653 2.22625 4.27308L2.0091 4.39696ZM2.25405 4.5827L3.24957 4.83158L3.31021 4.58905L2.31468 4.34017L2.25405 4.5827ZM3.1915 4.7987L6.60593 8.21314L6.78271 8.03636L3.36828 4.62193L3.1915 4.7987ZM6.7827 8.21315L7.15997 7.83599L6.98322 7.65919L6.60595 8.03635L6.7827 8.21315ZM7.15998 7.6592L3.69211 4.19143L3.51533 4.36821L6.98321 7.83598L7.15998 7.6592ZM3.69225 4.19158C3.64206 4.14122 3.57914 4.10559 3.51032 4.08834L3.44955 4.33084C3.47445 4.33708 3.49713 4.34995 3.51519 4.36807L3.69225 4.19158ZM3.51036 4.08835L2.55379 3.84836L2.49295 4.09084L3.44952 4.33083L3.51036 4.08835ZM2.63191 3.90761L1.72341 2.31687L1.50632 2.44086L2.41482 4.03159L2.63191 3.90761ZM1.70325 2.46725L2.48216 1.68835L2.30538 1.51157L1.52648 2.29048L1.70325 2.46725ZM2.33175 1.70849L3.92314 2.61787L4.04718 2.40081L2.45579 1.49143L2.33175 1.70849ZM3.86392 2.53977L4.10403 3.49634L4.3465 3.43548L4.1064 2.47891L3.86392 2.53977ZM4.10393 3.49596C4.12107 3.56518 4.15691 3.62821 4.207 3.6783L4.38377 3.50152C4.36561 3.48336 4.35272 3.46058 4.3466 3.43586L4.10393 3.49596ZM4.207 3.6783L7.67487 7.14618L7.85165 6.9694L4.38377 3.50152L4.207 3.6783ZM7.85166 7.14616L8.22883 6.76889L8.05202 6.59214L7.67486 6.96941L7.85166 7.14616ZM8.22881 6.59213L4.81438 3.17769L4.6376 3.35447L8.05204 6.7689L8.22881 6.59213ZM4.84725 3.23575L4.59837 2.24077L4.35584 2.30144L4.60473 3.29641L4.84725 3.23575ZM4.59837 2.24074C4.57245 2.13724 4.50547 2.04863 4.41277 1.99559L4.28861 2.21258C4.32211 2.23175 4.34643 2.26385 4.35585 2.30147L4.59837 2.24074ZM4.41271 1.99555L2.54533 0.928592L2.4213 1.14566L4.28868 2.21262L4.41271 1.99555ZM2.54514 0.928482C2.39212 0.841415 2.19972 0.867233 2.075 0.991472L2.25143 1.16859C2.29658 1.12362 2.36623 1.11432 2.4215 1.14577L2.54514 0.928482ZM2.07482 0.991648L1.00786 2.05872L1.18465 2.23549L2.25161 1.16842L2.07482 0.991648ZM1.00861 2.05798C0.882572 2.18192 0.855212 2.37469 0.941544 2.52883L1.15966 2.40667C1.12836 2.35078 1.13831 2.28106 1.1839 2.23623L1.00861 2.05798ZM12.0527 6.16899L6.1841 12.0377L6.36088 12.2144L12.2294 6.34577L12.0527 6.16899ZM6.36088 12.0377L5.98361 11.6604L5.80683 11.8372L6.1841 12.2144L6.36088 12.0377ZM5.98361 11.8372L11.8523 5.96861L11.6755 5.79183L5.80683 11.6604L5.98361 11.8372ZM11.6755 5.96861L12.0527 6.34577L12.2294 6.16899L11.8523 5.79183L11.6755 5.96861ZM5.35251 12.2693C5.28163 12.1514 5.15429 12.0793 5.01669 12.0793V12.3293C5.06651 12.3293 5.11255 12.3554 5.13824 12.3981L5.35251 12.2693ZM5.01669 12.0793H3.41619V12.3293H5.01669V12.0793ZM3.41619 12.0793C3.27875 12.0793 3.15121 12.1513 3.08041 12.2694L3.29481 12.398C3.32035 12.3554 3.36642 12.3293 3.41619 12.3293V12.0793ZM3.08042 12.2694L2.28012 13.6031L2.49449 13.7317L3.29479 12.398L3.08042 12.2694ZM2.28018 13.603C2.20552 13.7272 2.20556 13.8824 2.28014 14.0066L2.49447 13.8779C2.46743 13.8328 2.46747 13.7767 2.49443 13.7318L2.28018 13.603ZM2.28012 14.0065L3.08042 15.3403L3.29479 15.2116L2.49449 13.8779L2.28012 14.0065ZM3.08045 15.3403C3.1512 15.4581 3.27867 15.5303 3.41619 15.5303V15.2803C3.3665 15.2803 3.32036 15.2542 3.29477 15.2116L3.08045 15.3403ZM3.41619 15.5303H5.01669V15.2803H3.41619V15.5303ZM5.01669 15.5303C5.15437 15.5303 5.28164 15.4581 5.35247 15.3404L5.13828 15.2115C5.11254 15.2542 5.06643 15.2803 5.01669 15.2803V15.5303ZM5.35256 15.3403L6.15276 14.0065L5.93838 13.8779L5.13819 15.2116L5.35256 15.3403ZM6.15273 14.0066C6.22731 13.8824 6.22735 13.7272 6.1527 13.603L5.93844 13.7318C5.9654 13.7767 5.96545 13.8328 5.93841 13.8779L6.15273 14.0066ZM6.15276 13.6031L5.35256 12.2694L5.13819 12.398L5.93838 13.7317L6.15276 13.6031ZM4.8658 14.7468H3.56718V14.9968H4.8658V14.7468ZM3.67437 14.8075L3.03417 13.7405L2.8198 13.8691L3.46 14.9361L3.67437 14.8075ZM3.03417 13.8691L3.67437 12.8021L3.46 12.6734L2.8198 13.7405L3.03417 13.8691ZM3.56718 12.8627H4.8658V12.6127H3.56718V12.8627ZM4.75861 12.8021L5.39881 13.8691L5.61319 13.7405L4.97299 12.6734L4.75861 12.8021ZM5.39881 13.7405L4.75861 14.8075L4.97298 14.9361L5.61318 13.8691L5.39881 13.7405ZM13.8192 7.52763C15.65 7.53379 17.1393 6.05452 17.1455 4.22368L16.8955 4.22284C16.8898 5.91561 15.5128 7.28333 13.82 7.27763L13.8192 7.52763ZM17.1455 4.22367C17.1464 3.94497 17.1122 3.66741 17.0436 3.39727L16.8013 3.45874C16.8647 3.70853 16.8963 3.96516 16.8955 4.22285L17.1455 4.22367ZM17.0438 3.39784C16.9916 3.18781 16.779 3.06005 16.569 3.11225L16.6294 3.35486C16.7054 3.33595 16.7823 3.38223 16.8012 3.45817L17.0438 3.39784ZM16.5689 3.11229C16.4999 3.12953 16.4371 3.16513 16.387 3.21514L16.5634 3.3922C16.5817 3.37396 16.6045 3.36106 16.6295 3.35482L16.5689 3.11229ZM16.3868 3.21526L14.7263 4.87468L14.903 5.05152L16.5636 3.39209L16.3868 3.21526ZM14.8542 4.84451L13.5367 4.40546L13.4577 4.64263L14.7752 5.08169L14.8542 4.84451ZM13.6158 4.48449L13.1764 3.16733L12.9392 3.24644L13.3786 4.5636L13.6158 4.48449ZM13.1462 3.29527L14.8067 1.63442L14.6299 1.45766L12.9694 3.11851L13.1462 3.29527ZM14.8068 1.63438C14.9597 1.48128 14.9595 1.23325 14.8064 1.08033L14.6298 1.2572C14.6852 1.31256 14.6852 1.4023 14.6299 1.4577L14.8068 1.63438ZM14.8065 1.08038C14.756 1.02986 14.6925 0.994114 14.6231 0.977044L14.5634 1.21981C14.5886 1.226 14.6115 1.23898 14.6297 1.25716L14.8065 1.08038ZM14.6239 0.977252C12.8484 0.527617 11.0447 1.60239 10.5951 3.37778L10.8374 3.43916C11.2532 1.79761 12.9209 0.803861 14.5625 1.2196L14.6239 0.977252ZM10.5951 3.37774C10.5268 3.64712 10.4927 3.92402 10.4936 4.20194L10.7436 4.20112C10.7427 3.94419 10.7743 3.68822 10.8374 3.4392L10.5951 3.37774ZM10.4936 4.20192C10.4943 4.42028 10.5168 4.63801 10.561 4.85193L10.8059 4.80124C10.765 4.60387 10.7442 4.40286 10.7436 4.20114L10.4936 4.20192ZM10.5951 4.7382L4.75305 10.5801L4.92982 10.7569L10.7718 4.91498L10.5951 4.7382ZM4.86671 10.5461C4.65284 10.5019 4.43515 10.4794 4.21695 10.4786L4.21603 10.7286C4.41768 10.7294 4.61874 10.7501 4.81615 10.7909L4.86671 10.5461ZM4.21649 10.4786C2.3795 10.4786 0.890381 11.9677 0.890381 13.8047H1.14038C1.14038 12.1058 2.51757 10.7286 4.21649 10.7286V10.4786ZM0.890381 13.8047C0.890381 15.6416 2.3795 17.1307 4.21649 17.1307V16.8807C2.51756 16.8807 1.14038 15.5035 1.14038 13.8047H0.890381ZM4.21649 17.1307C6.05337 17.1307 7.54249 15.6416 7.54249 13.8047H7.29249C7.29249 15.5035 5.9153 16.8807 4.21649 16.8807V17.1307ZM7.54248 13.8043C7.5418 13.5859 7.51921 13.3682 7.47505 13.1544L7.23021 13.2049C7.27099 13.4024 7.29185 13.6034 7.29249 13.8051L7.54248 13.8043ZM7.44102 13.2681L8.8396 11.8695L8.66283 11.6927L7.26424 13.0913L7.44102 13.2681ZM8.66283 11.8695L9.2745 12.4811L9.45127 12.3044L8.8396 11.6927L8.66283 11.8695ZM9.27454 12.4812C9.4276 12.6341 9.67544 12.6341 9.8285 12.4812L9.65181 12.3043C9.59637 12.3597 9.50667 12.3597 9.45123 12.3043L9.27454 12.4812ZM9.82858 12.4811L9.96191 12.3477L9.78506 12.171L9.65173 12.3044L9.82858 12.4811ZM9.96158 12.348C10.0298 12.2802 10.1402 12.2802 10.2084 12.348L10.3846 12.1706C10.2189 12.006 9.95111 12.006 9.78539 12.1706L9.96158 12.348ZM10.2083 12.3478C10.2762 12.4156 10.2764 12.5256 10.2086 12.5936L10.3856 12.7702C10.5508 12.6044 10.5506 12.3361 10.3848 12.1708L10.2083 12.3478ZM10.2087 12.5935L10.0748 12.7274L10.2516 12.9042L10.3855 12.7703L10.2087 12.5935ZM10.0748 12.7274C9.92184 12.8803 9.92184 13.1284 10.0748 13.2813L10.2516 13.1046C10.1963 13.0492 10.1963 12.9595 10.2516 12.9042L10.0748 12.7274ZM10.0748 13.2813L13.2569 16.4634L13.4337 16.2867L10.2516 13.1046L10.0748 13.2813ZM13.2565 16.463C14.1421 17.3567 15.5844 17.3632 16.478 16.4777L16.3021 16.3001C15.5065 17.0885 14.2225 17.0827 13.4341 16.2871L13.2565 16.463ZM16.478 16.4777C17.3716 15.5921 17.3781 14.1497 16.4925 13.2562L16.315 13.4321C17.1033 14.2276 17.0975 15.5117 16.3021 16.3001L16.478 16.4777ZM16.4932 13.2568C16.4881 13.2516 16.4829 13.2465 16.4784 13.2419L16.3017 13.4187C16.3064 13.4234 16.3104 13.4275 16.3143 13.4315L16.4932 13.2568ZM16.4784 13.2419L13.2963 10.0599L13.1195 10.2367L16.3017 13.4187L16.4784 13.2419ZM13.2963 10.0599C13.1434 9.90698 12.8953 9.90698 12.7424 10.0599L12.9191 10.2367C12.9745 10.1814 13.0642 10.1814 13.1195 10.2367L13.2963 10.0599ZM12.7424 10.0599L12.609 10.1933L12.7858 10.37L12.9191 10.2367L12.7424 10.0599ZM12.6093 10.193C12.541 10.2609 12.4307 10.2609 12.3624 10.193L12.1862 10.3703C12.352 10.5351 12.6197 10.5351 12.7855 10.3703L12.6093 10.193ZM12.3626 10.1932C12.2946 10.1253 12.2945 10.0153 12.3622 9.94748L12.1853 9.77087C12.0199 9.93657 12.0204 10.2049 12.186 10.3701L12.3626 10.1932ZM12.3621 9.94756L12.4961 9.81357L12.3193 9.6368L12.1854 9.77079L12.3621 9.94756ZM12.4961 9.81357C12.6491 9.66062 12.6491 9.41259 12.4961 9.25964L12.3193 9.43641C12.3747 9.49174 12.3747 9.58147 12.3193 9.6368L12.4961 9.81357ZM12.4961 9.25964L11.8844 8.64797L11.7077 8.82475L12.3193 9.43641L12.4961 9.25964ZM11.8844 8.82475L13.283 7.42617L13.1063 7.24939L11.7077 8.64797L11.8844 8.82475ZM13.1694 7.46019C13.3832 7.50435 13.6009 7.52695 13.8192 7.52763L13.82 7.27763C13.6184 7.277 13.4174 7.25614 13.2199 7.21536L13.1694 7.46019ZM14.8679 16.3473C14.689 16.347 14.5117 16.3147 14.3443 16.2518L14.2564 16.4858C14.4518 16.5592 14.6588 16.5969 14.8675 16.5973L14.8679 16.3473ZM14.3887 16.4572L16.4721 14.3737L16.2953 14.197L14.212 16.2804L14.3887 16.4572ZM16.2667 14.3293C16.5568 15.101 16.1664 15.9617 15.3948 16.2518L15.4827 16.4858C16.3836 16.1471 16.8394 15.1423 16.5007 14.2414L16.2667 14.3293ZM15.3948 16.2518C15.2264 16.3151 15.0478 16.3475 14.8678 16.3473L14.8675 16.5973C15.0777 16.5975 15.2861 16.5597 15.4827 16.4858L15.3948 16.2518ZM11.7499 9.45899C11.4101 9.86427 11.4634 10.4683 11.8686 10.808L12.0292 10.6163C11.7298 10.3654 11.6904 9.91904 11.9414 9.6196L11.7499 9.45899ZM11.8686 10.808C12.2248 11.1064 12.7439 11.1062 13.0997 10.8071L12.9388 10.6157C12.676 10.8367 12.2924 10.8369 12.0292 10.6163L11.8686 10.808ZM12.9309 10.7997L15.9245 13.796L16.1013 13.6193L13.1077 10.623L12.9309 10.7997ZM15.9243 13.7958C15.9535 13.8251 15.9814 13.8565 16.0096 13.89L16.2008 13.7289C16.1701 13.6926 16.1373 13.6553 16.1014 13.6194L15.9243 13.7958ZM16.0168 13.721L13.736 16.0018L13.9128 16.1786L16.1936 13.8978L16.0168 13.721ZM13.9046 15.9943C13.8713 15.9664 13.84 15.9386 13.8109 15.9095L13.6341 16.0863C13.6702 16.1224 13.7075 16.1553 13.7442 16.186L13.9046 15.9943ZM13.8109 15.9095L10.815 12.9134L10.6382 13.0902L13.6341 16.0863L13.8109 15.9095ZM10.8224 13.0821C11.1621 12.6768 11.1089 12.0728 10.7036 11.7331L10.543 11.9247C10.8425 12.1757 10.8818 12.622 10.6308 12.9215L10.8224 13.0821ZM10.7036 11.7331C10.3474 11.4345 9.8282 11.4349 9.47242 11.7339L9.63326 11.9253C9.89616 11.7043 10.2798 11.7041 10.543 11.9247L10.7036 11.7331ZM9.64122 11.7412L9.21446 11.3144L9.03769 11.4912L9.46445 11.918L9.64122 11.7412ZM9.2144 11.4913L11.5071 9.20197L11.3305 9.02507L9.03775 11.3144L9.2144 11.4913ZM11.3305 9.20202L11.7574 9.6278L11.9339 9.45079L11.5071 9.02502L11.3305 9.20202ZM12.8344 6.76797L6.78306 12.8181L6.95982 12.9949L13.0112 6.94476L12.8344 6.76797ZM6.78312 12.8181C6.68562 12.9154 6.64651 13.0567 6.67968 13.1902L6.9223 13.1299C6.91025 13.0814 6.92448 13.0302 6.95975 12.995L6.78312 12.8181ZM6.67985 13.1909C7.02879 14.5612 6.20076 15.9549 4.83035 16.3037L4.89202 16.546C6.39625 16.1631 7.30513 14.6333 6.92212 13.1292L6.67985 13.1909ZM4.83034 16.3037C3.46003 16.6527 2.06628 15.8247 1.71735 14.4542L1.47508 14.5159C1.85808 16.0201 3.38792 16.929 4.89203 16.546L4.83034 16.3037ZM1.71735 14.4542C1.36852 13.0839 2.19655 11.6902 3.56697 11.3413L3.50528 11.099C2.00106 11.482 1.09219 13.0118 1.47508 14.5159L1.71735 14.4542ZM3.56695 11.3413C3.98149 11.2358 4.41582 11.2358 4.83037 11.3413L4.89201 11.099C4.43701 10.9832 3.9603 10.9832 3.5053 11.099L3.56695 11.3413ZM4.83146 11.3415C4.96472 11.3742 5.10533 11.3351 5.2027 11.2385L5.02666 11.061C4.99102 11.0964 4.93959 11.1106 4.89092 11.0987L4.83146 11.3415ZM5.20307 11.2382L11.253 5.18789L11.0762 5.01111L5.02629 11.0614L5.20307 11.2382ZM11.253 5.18789C11.3503 5.09058 11.3895 4.94924 11.356 4.81566L11.1135 4.87657C11.1256 4.92472 11.1115 4.97586 11.0762 5.01111L11.253 5.18789ZM11.3559 4.81513C11.0095 3.4616 11.826 2.08358 13.1795 1.73715L13.1176 1.49495C11.6303 1.87562 10.7331 3.3898 11.1137 4.87711L11.3559 4.81513ZM13.1795 1.73716C13.4353 1.67179 13.6999 1.6467 13.9634 1.66312L13.9789 1.4136C13.6893 1.39556 13.3986 1.42314 13.1176 1.49494L13.1795 1.73716ZM13.8827 1.44999L12.4756 2.85767L12.6524 3.03442L14.0595 1.62673L13.8827 1.44999ZM12.4757 2.85759C12.3707 2.96238 12.334 3.11761 12.3809 3.25838L12.6181 3.17932C12.6011 3.12849 12.6144 3.07237 12.6523 3.0345L12.4757 2.85759ZM12.3809 3.25837L12.9143 4.85897L13.1515 4.77993L12.6181 3.17933L12.3809 3.25837ZM12.9144 4.85918C12.9535 4.97589 13.0453 5.06776 13.1624 5.10664L13.2412 4.86937C13.1989 4.85536 13.1656 4.82213 13.1514 4.77973L12.9144 4.85918ZM13.1622 5.10659L14.7629 5.64013L14.8419 5.40296L13.2413 4.86942L13.1622 5.10659ZM14.7628 5.64011C14.9034 5.68704 15.0586 5.65043 15.1635 5.54569L14.9869 5.36878C14.9489 5.4067 14.8927 5.41991 14.842 5.40297L14.7628 5.64011ZM15.1636 5.54563L16.5707 4.13848L16.3939 3.96171L14.9868 5.36885L15.1636 5.54563ZM16.3576 4.05789C16.3606 4.10636 16.3622 4.15413 16.3622 4.20153H16.6122C16.6122 4.14864 16.6104 4.09567 16.6071 4.0423L16.3576 4.05789ZM16.3622 4.20217C16.3693 5.59888 15.2429 6.73688 13.8462 6.7441L13.8474 6.99409C15.3822 6.98617 16.62 5.73567 16.6122 4.2009L16.3622 4.20217ZM13.8462 6.7441C13.6302 6.74514 13.415 6.71858 13.2059 6.66504L13.1439 6.90723C13.3737 6.96606 13.6102 6.99524 13.8474 6.99409L13.8462 6.7441ZM13.2052 6.66486C13.0717 6.63154 12.9304 6.67046 12.833 6.76787L13.0098 6.94465C13.0449 6.90949 13.0961 6.8953 13.1446 6.90741L13.2052 6.66486ZM12.9118 6.98089L12.9132 6.981L12.9324 6.73174L12.931 6.73163L12.9118 6.98089ZM14.7203 14.328L14.3431 14.7053L14.5198 14.882L14.8971 14.5048L14.7203 14.328ZM14.5198 14.7053L11.8524 12.0378L11.6756 12.2146L14.3431 14.882L14.5198 14.7053ZM11.8524 12.2146L12.2296 11.8373L12.0528 11.6605L11.6756 12.0378L11.8524 12.2146ZM12.0528 11.8373L14.7203 14.5048L14.8971 14.328L12.2296 11.6605L12.0528 11.8373Z" fill="#3F8C97"/>
</svg>
