<svg width="70" height="55" viewBox="0 0 70 55" fill="none" xmlns="http://www.w3.org/2000/svg">
<g filter="url(#filter0_d)">
<path d="M59.2676 37.514C59.6721 37.514 60 37.2121 60 36.8397V16.661C60 16.2887 59.6721 15.9868 59.2676 15.9868C58.8631 15.9868 58.5352 16.2887 58.5352 16.661V17.4281H57.8964L42.4027 9.27743C41.6994 8.90757 40.8257 8.90748 40.1224 9.27743L33.8349 12.585L30.4255 11.2398C29.8501 11.0128 29.1902 11.0127 28.6149 11.2398L12.9306 17.4281H11.4648V16.661C11.4648 16.2887 11.1369 15.9868 10.7324 15.9868C10.3279 15.9868 10 16.2887 10 16.661V36.8397C10 37.2121 10.3279 37.514 10.7324 37.514H11.9112L13.1815 39.227C12.6654 39.7343 12.3484 40.4154 12.3484 41.1638C12.3484 41.709 12.5169 42.2187 12.8077 42.6515H10.7324C10.3279 42.6515 10 42.9534 10 43.3257C10 43.6981 10.3279 44 10.7324 44H59.2676C59.6721 44 60 43.6981 60 43.3257C60 42.9534 59.6721 42.6515 59.2676 42.6515H57.3635C57.6544 42.2187 57.8228 41.709 57.8228 41.1638C57.8228 40.4154 57.5058 39.7344 56.9897 39.227L58.26 37.514H59.2676ZM29.192 12.4794C29.4006 12.397 29.6398 12.3971 29.8484 12.4794L35.4937 14.7067C35.8654 14.8534 36.2961 14.6949 36.4555 14.3526C36.6148 14.0103 36.4426 13.614 36.0708 13.4672L35.5221 13.2508L40.8492 10.4484C41.1041 10.3143 41.421 10.3143 41.676 10.4484L54.9439 17.4282H46.1099L38.9464 14.6018C38.5745 14.4551 38.1439 14.6137 37.9847 14.9559C37.8253 15.2983 37.9976 15.6946 38.3693 15.8413L42.3912 17.4281H16.6492L29.192 12.4794ZM11.4648 18.7766H58.5352V20.3107H11.4648V18.7766ZM50.446 21.6592V36.1655H47.8662V21.6592H50.446ZM46.4014 21.6592V36.1655H43.8216V21.6592H46.4014ZM42.3567 21.6592V36.1655H39.777V21.6592H42.3567ZM38.3122 21.6592V36.1655H35.7324V21.6592H38.3122ZM34.2676 21.6592V36.1655H31.6878V21.6592H34.2676ZM30.2229 21.6592V36.1655H27.6432V21.6592H30.2229ZM26.1784 21.6592V36.1655H23.5986V21.6592H26.1784ZM22.1338 21.6592V36.1655H19.554V21.6592H22.1338ZM11.4648 36.1655V21.6592H14.0446V32.5154C14.0446 32.8878 14.3726 33.1897 14.7771 33.1897C15.1815 33.1897 15.5095 32.8878 15.5095 32.5154V21.6592H18.0893V36.1655H15.5095V35.3986C15.5095 35.0262 15.1815 34.7243 14.7771 34.7243C14.3726 34.7243 14.0446 35.0262 14.0446 35.3986V36.1655H11.4648ZM15.4294 42.6515C14.5383 42.6515 13.8134 41.9841 13.8134 41.1638C13.8134 40.3434 14.5383 39.6761 15.4294 39.6761C16.3205 39.6761 17.0454 40.3434 17.0454 41.1638C17.0454 41.9841 16.3205 42.6515 15.4294 42.6515ZM18.051 42.6515C18.3419 42.2187 18.5103 41.709 18.5103 41.1638C18.5103 41.1482 18.5093 41.1328 18.509 41.1174H20.178C20.1777 41.1328 20.1768 41.1482 20.1768 41.1638C20.1768 41.709 20.3452 42.2187 20.636 42.6515H18.051ZM23.2576 42.6515C22.3665 42.6515 21.6415 41.9841 21.6415 41.1638C21.6415 40.3434 22.3665 39.6761 23.2576 39.6761C24.1487 39.6761 24.8736 40.3434 24.8736 41.1638C24.8736 41.9841 24.1487 42.6515 23.2576 42.6515ZM25.8792 42.6515C26.1701 42.2187 26.3385 41.709 26.3385 41.1638C26.3385 41.1482 26.3375 41.1328 26.3372 41.1174H43.834C43.8337 41.1328 43.8327 41.1482 43.8327 41.1638C43.8327 41.709 44.0012 42.2187 44.292 42.6515H25.8792ZM46.9137 42.6515C46.0226 42.6515 45.2977 41.9841 45.2977 41.1638C45.2977 40.3434 46.0226 39.6761 46.9137 39.6761C47.8048 39.6761 48.5297 40.3434 48.5297 41.1638C48.5297 41.9841 47.8048 42.6515 46.9137 42.6515ZM49.5353 42.6515C49.8262 42.2187 49.9945 41.709 49.9945 41.1638C49.9945 41.1482 49.9936 41.1328 49.9933 41.1174H51.6623C51.662 41.1328 51.661 41.1482 51.661 41.1638C51.661 41.709 51.8295 42.2187 52.1203 42.6515H49.5353ZM54.7419 42.6515C53.8508 42.6515 53.1259 41.9841 53.1259 41.1638C53.1259 40.3434 53.8508 39.6761 54.7419 39.6761C55.633 39.6761 56.3579 40.3434 56.3579 41.1638C56.3579 41.9841 55.633 42.6515 54.7419 42.6515ZM55.7637 38.4885C55.4437 38.3846 55.1 38.3275 54.7419 38.3275C53.5937 38.3275 52.5908 38.9092 52.0609 39.7688H49.5945C49.0646 38.9092 48.0618 38.3275 46.9136 38.3275C45.7653 38.3275 44.7625 38.9092 44.2326 39.7688H25.9386C25.4087 38.9092 24.4059 38.3275 23.2576 38.3275C22.1094 38.3275 21.1065 38.9092 20.5767 39.7688H18.1103C17.5804 38.9092 16.5775 38.3275 15.4293 38.3275C15.0712 38.3275 14.7274 38.3846 14.4075 38.4885L13.6849 37.5141H56.4863L55.7637 38.4885ZM55.9554 36.1655V25.3094C55.9554 24.937 55.6274 24.6351 55.2229 24.6351C54.8185 24.6351 54.4905 24.937 54.4905 25.3094V36.1655H51.9107V21.6592H54.4905V22.4261C54.4905 22.7985 54.8185 23.1004 55.2229 23.1004C55.6274 23.1004 55.9554 22.7985 55.9554 22.4261V21.6592H58.5352V36.1655H55.9554Z" fill="white"/>
</g>
<defs>
<filter id="filter0_d" x="0" y="0" width="70" height="55" filterUnits="userSpaceOnUse" color-interpolation-filters="sRGB">
<feFlood flood-opacity="0" result="BackgroundImageFix"/>
<feColorMatrix in="SourceAlpha" type="matrix" values="0 0 0 0 0 0 0 0 0 0 0 0 0 0 0 0 0 0 127 0"/>
<feOffset dy="1"/>
<feGaussianBlur stdDeviation="5"/>
<feColorMatrix type="matrix" values="0 0 0 0 0 0 0 0 0 0 0 0 0 0 0 0 0 0 0.5 0"/>
<feBlend mode="normal" in2="BackgroundImageFix" result="effect1_dropShadow"/>
<feBlend mode="normal" in="SourceGraphic" in2="effect1_dropShadow" result="shape"/>
</filter>
</defs>
</svg>
