<svg xmlns="http://www.w3.org/2000/svg" viewBox="0 0 141.87 33.03"><defs><style>.cls-1,.cls-2{fill:#30424f;}.cls-2{fill-rule:evenodd;}.cls-3{fill:#c7442a;}</style></defs><title>Ресурс 2</title><g id="Слой_2" data-name="Слой 2"><g id="Слой_1-2" data-name="Слой 1"><path class="cls-1" d="M51.25,8.63a10.46,10.46,0,0,0-1.95.11c0,.14,0,.22,0,.35H47.51a3.88,3.88,0,0,1,.27-1.57,13.13,13.13,0,0,1,3.47-.27c.83,0,1.54,0,2.11.06a3.42,3.42,0,0,1,1.08.18A3.19,3.19,0,0,1,54.56,10a1.93,1.93,0,0,1,.38,1,3.91,3.91,0,0,1-.13,1.45,2.4,2.4,0,0,1-.1.26l-.07.14a15.1,15.1,0,0,1-3.39.23,13.14,13.14,0,0,1-3.47-.27,3.88,3.88,0,0,1-.27-1.57h1.75c0,.13,0,.21,0,.35a10.46,10.46,0,0,0,1.95.11,11.74,11.74,0,0,0,2-.12,1.3,1.3,0,0,0,0-.85H50.05V9.48h3.08a1,1,0,0,0,0-.76,12.82,12.82,0,0,0-1.87-.09"/><path class="cls-1" d="M65.35,10.76H69a1.09,1.09,0,0,1,0,.9h-3.6Zm4.77-3.27a4,4,0,0,0-1.43-.16H63.6V13H68.9a9.36,9.36,0,0,0,1.39-.09,2.25,2.25,0,0,0,.2-.47A3.92,3.92,0,0,0,70.62,11a1.92,1.92,0,0,0-.38-1A3.19,3.19,0,0,0,70.12,7.49ZM65.35,8.71h3.46a1,1,0,0,1,0,.76H65.35Z"/><polygon class="cls-1" points="127.06 25.6 128.81 25.6 128.81 29.63 128.67 30.22 128.73 30.23 128.97 29.81 131.4 25.6 134.36 25.6 134.36 31.29 132.61 31.29 132.61 27.27 132.75 26.68 132.69 26.66 132.45 27.08 130.02 31.29 127.06 31.29 127.06 25.6"/><polygon class="cls-1" points="118.78 25.6 120.53 25.6 120.53 27.59 124.31 27.59 124.31 25.6 126.06 25.6 126.06 31.29 124.31 31.29 124.31 29.07 120.53 29.07 120.53 31.29 118.78 31.29 118.78 25.6"/><path class="cls-1" d="M75.12,29.89H73.17v1.39H71.42v-5.7h3.7a6.78,6.78,0,0,1,2.7.27,4.66,4.66,0,0,1,.28,1.89,4.66,4.66,0,0,1-.28,1.89,6.78,6.78,0,0,1-2.7.27m-1.95-1.47h1.95c1,0,1,0,1.18-.11a4.48,4.48,0,0,0,0-1.14c-.18-.07-.16-.11-1.18-.11H73.17Z"/><path class="cls-1" d="M60.78,29.46a1,1,0,0,0-.1-.45H57.49v.89h3.18a1,1,0,0,0,.1-.44m-5,1.82v-5.7h6.15V27h-4.4v.78h3.14a8.31,8.31,0,0,1,1.33.09,2.34,2.34,0,0,1,.21.48,3,3,0,0,1,.16,1c0,.05,0,.1,0,.16s0,.1,0,.16A3.13,3.13,0,0,1,62,31.19a8.32,8.32,0,0,1-1.33.09H55.74Z"/><polygon class="cls-1" points="95.67 16.46 101.03 16.46 101.03 17.93 97.42 17.93 97.42 22.16 95.67 22.16 95.67 16.46"/><polygon class="cls-1" points="55.65 22.16 55.65 16.46 62.15 16.46 62.15 17.84 57.4 17.84 57.4 18.61 61.95 18.61 61.95 19.89 57.4 19.89 57.4 20.78 62.15 20.78 62.15 22.16 55.65 22.16"/><path class="cls-1" d="M79.67,11.56c.28,0,.48-.84.54-1.05l.91-3.17h5.41v4.23h.53v2.06H85.32v-.24a.37.37,0,0,0-.08-.27.41.41,0,0,0-.29-.08H81.4c-.25,0-.38.12-.38.35v.24H79.27V11.56Zm5.11,0V8.8H82.65L82,10.89a1.38,1.38,0,0,1-.35.67Z"/><path class="cls-1" d="M75.08,13.12a13.13,13.13,0,0,1-3.47-.27,6.78,6.78,0,0,1-.29-2.66,6.78,6.78,0,0,1,.29-2.66,13.16,13.16,0,0,1,3.47-.27,13.16,13.16,0,0,1,3.47.27,6.78,6.78,0,0,1,.29,2.66,6.78,6.78,0,0,1-.29,2.66,13.13,13.13,0,0,1-3.47.27m0-4.38a10.46,10.46,0,0,0-1.95.11,9.91,9.91,0,0,0-.06,1.35,9.91,9.91,0,0,0,.06,1.35,10.46,10.46,0,0,0,1.95.11A10.47,10.47,0,0,0,77,11.53a9.94,9.94,0,0,0,.06-1.35A9.94,9.94,0,0,0,77,8.84,10.47,10.47,0,0,0,75.08,8.73Z"/><path class="cls-1" d="M57.5,12l-.14.31L57,13H54.92l2.82-5.68h2.91L63.47,13H61.35l-.48-1Zm1.83-3.36h-.27l-1,2.13h2.24Z"/><path class="cls-1" d="M74.83,22.24A13.13,13.13,0,0,1,71.36,22a6.78,6.78,0,0,1-.29-2.66,6.78,6.78,0,0,1,.29-2.66,13.14,13.14,0,0,1,3.47-.27,13.14,13.14,0,0,1,3.47.27,6.78,6.78,0,0,1,.29,2.66A6.78,6.78,0,0,1,78.3,22a13.13,13.13,0,0,1-3.47.27m0-4.39a10.48,10.48,0,0,0-1.95.11,9.91,9.91,0,0,0-.06,1.35,9.91,9.91,0,0,0,.06,1.35,10.48,10.48,0,0,0,1.95.11,10.49,10.49,0,0,0,1.95-.11,9.93,9.93,0,0,0,.06-1.35A9.93,9.93,0,0,0,76.78,18,10.48,10.48,0,0,0,74.83,17.86Z"/><path class="cls-1" d="M66.66,17.86a10.48,10.48,0,0,0-1.95.11,9.93,9.93,0,0,0-.06,1.35,9.93,9.93,0,0,0,.06,1.35,10.49,10.49,0,0,0,1.95.11,10.48,10.48,0,0,0,1.95-.11c0-.14,0-.26,0-.37h1.76A4.16,4.16,0,0,1,70.13,22a13.13,13.13,0,0,1-3.47.27A13.13,13.13,0,0,1,63.2,22a6.77,6.77,0,0,1-.29-2.66,6.78,6.78,0,0,1,.29-2.66,13.14,13.14,0,0,1,3.47-.27,13.13,13.13,0,0,1,3.47.27,4.17,4.17,0,0,1,.27,1.69H68.65c0-.12,0-.23,0-.37a10.48,10.48,0,0,0-1.95-.11"/><path class="cls-1" d="M90.92,22.24A13.13,13.13,0,0,1,87.46,22a6.78,6.78,0,0,1-.29-2.66,6.78,6.78,0,0,1,.29-2.66,13.14,13.14,0,0,1,3.47-.27,13.14,13.14,0,0,1,3.47.27,6.78,6.78,0,0,1,.29,2.66A6.78,6.78,0,0,1,94.39,22a13.13,13.13,0,0,1-3.47.27m0-4.39A10.48,10.48,0,0,0,89,18a9.92,9.92,0,0,0-.06,1.35A9.92,9.92,0,0,0,89,20.66a17.24,17.24,0,0,0,3.9,0,10,10,0,0,0,.06-1.35A10,10,0,0,0,92.87,18,10.48,10.48,0,0,0,90.92,17.86Z"/><path class="cls-1" d="M105.3,22.24a13.13,13.13,0,0,1-3.47-.27,6.77,6.77,0,0,1-.29-2.66,6.78,6.78,0,0,1,.29-2.66,13.14,13.14,0,0,1,3.47-.27,13.13,13.13,0,0,1,3.47.27,6.78,6.78,0,0,1,.29,2.66,6.77,6.77,0,0,1-.29,2.66,13.13,13.13,0,0,1-3.47.27m0-4.39a10.48,10.48,0,0,0-1.95.11,9.93,9.93,0,0,0-.06,1.35,9.93,9.93,0,0,0,.06,1.35,17.24,17.24,0,0,0,3.9,0,9.93,9.93,0,0,0,.06-1.35,9.93,9.93,0,0,0-.06-1.35A10.48,10.48,0,0,0,105.3,17.86Z"/><path class="cls-1" d="M49.51,19.89h3.6a1.09,1.09,0,0,1,0,.9h-3.6Zm4.77-3.27a4,4,0,0,0-1.43-.16H47.76v5.7H53a9.34,9.34,0,0,0,1.39-.09,2.25,2.25,0,0,0,.2-.47,3.91,3.91,0,0,0,.13-1.45,1.92,1.92,0,0,0-.38-1A3.19,3.19,0,0,0,54.27,16.62Zm-4.77,1.22H53a1,1,0,0,1,0,.76H49.51Z"/><path class="cls-1" d="M81.24,19.89h3.6a1.09,1.09,0,0,1,0,.9h-3.6ZM86,16.62a4,4,0,0,0-1.43-.16H79.49v5.7h5.29a9.35,9.35,0,0,0,1.39-.09,2.25,2.25,0,0,0,.2-.47,3.91,3.91,0,0,0,.13-1.45,1.92,1.92,0,0,0-.38-1A3.19,3.19,0,0,0,86,16.62Zm-4.77,1.22H84.7a1,1,0,0,1,0,.76H81.24Z"/><path class="cls-1" d="M51.21,31.37a13.13,13.13,0,0,1-3.47-.27,6.77,6.77,0,0,1-.29-2.66,6.77,6.77,0,0,1,.29-2.66,13.13,13.13,0,0,1,3.47-.27,13.14,13.14,0,0,1,3.47.27A6.77,6.77,0,0,1,55,28.44a6.77,6.77,0,0,1-.29,2.66,13.14,13.14,0,0,1-3.47.27m0-4.38a10.46,10.46,0,0,0-1.95.11,9.92,9.92,0,0,0-.06,1.35,9.92,9.92,0,0,0,.06,1.35,10.49,10.49,0,0,0,1.95.11,10.5,10.5,0,0,0,1.95-.11,9.93,9.93,0,0,0,.06-1.35,9.92,9.92,0,0,0-.06-1.35A10.46,10.46,0,0,0,51.21,27Z"/><path class="cls-1" d="M66.76,31.37a13.13,13.13,0,0,1-3.47-.27A6.78,6.78,0,0,1,63,28.44a6.78,6.78,0,0,1,.29-2.66,13.13,13.13,0,0,1,3.47-.27,13.14,13.14,0,0,1,3.47.27,6.78,6.78,0,0,1,.29,2.66,6.78,6.78,0,0,1-.29,2.66,13.14,13.14,0,0,1-3.47.27m0-4.38a10.46,10.46,0,0,0-1.95.11,9.92,9.92,0,0,0-.06,1.35,9.93,9.93,0,0,0,.06,1.35,10.49,10.49,0,0,0,1.95.11,10.5,10.5,0,0,0,1.95-.11,9.93,9.93,0,0,0,.06-1.35,9.92,9.92,0,0,0-.06-1.35A10.46,10.46,0,0,0,66.76,27Z"/><path class="cls-1" d="M98.34,31.37a13.13,13.13,0,0,1-3.47-.27,6.77,6.77,0,0,1-.29-2.66,6.77,6.77,0,0,1,.29-2.66,13.13,13.13,0,0,1,3.47-.27,13.14,13.14,0,0,1,3.47.27,6.77,6.77,0,0,1,.29,2.66,6.77,6.77,0,0,1-.29,2.66,13.14,13.14,0,0,1-3.47.27m0-4.38a10.46,10.46,0,0,0-1.95.11,9.92,9.92,0,0,0-.06,1.35,9.92,9.92,0,0,0,.06,1.35,17.24,17.24,0,0,0,3.9,0,9.93,9.93,0,0,0,.06-1.35,9.92,9.92,0,0,0-.06-1.35A10.46,10.46,0,0,0,98.34,27Z"/><path class="cls-1" d="M104.7,29h3.6a1.09,1.09,0,0,1,0,.9h-3.6Zm4.77-3.27a4,4,0,0,0-1.43-.16h-5.09v5.7h5.29a9.36,9.36,0,0,0,1.39-.09,2.26,2.26,0,0,0,.2-.47,3.91,3.91,0,0,0,.13-1.45,1.92,1.92,0,0,0-.38-1A3.19,3.19,0,0,0,109.46,25.75ZM104.7,27h3.46a1,1,0,0,1,0,.76H104.7Z"/><path class="cls-1" d="M112.57,30.25l-.14.31-.32.73H110l2.82-5.68h2.91l2.82,5.68h-2.11l-.48-1Zm1.83-3.36h-.27l-1,2.13h2.24Z"/><path class="cls-2" d="M80.42,26.66l-.2-1.07h-1.8a10.56,10.56,0,0,0,1.13,3.81,8.27,8.27,0,0,0,2.9.27h1l.6,0a.86.86,0,0,1-1,.78H81.07a5.07,5.07,0,0,1-1.43-.2l-.43,1.47a9.54,9.54,0,0,0,2,.2h2a2.1,2.1,0,0,0,2.25-1.28,7.19,7.19,0,0,0,.37-1.37l.62-3.15c0-.15.06-.32.08-.49H84.69l0,.3-.21,1.36a4,4,0,0,1-.18.81,1.8,1.8,0,0,1-.41.08l-.58,0h-.82a11.86,11.86,0,0,1-1.22,0,1.52,1.52,0,0,1-.32-.06,3.7,3.7,0,0,1-.49-1.43"/><path class="cls-1" d="M86.67,29.81c.28,0,.48-.84.54-1.05l.91-3.17h5.41v4.23h.53v2.06H92.31v-.24a.37.37,0,0,0-.08-.27.41.41,0,0,0-.29-.08H88.4c-.25,0-.38.12-.38.35v.24H86.27V29.81Zm5.11,0V27.06H89.65L89,29.14a1.38,1.38,0,0,1-.35.67Z"/><path class="cls-1" d="M138.18,29.89h1.95v1.39h1.75v-5.7h-3.7a6.78,6.78,0,0,0-2.7.27,4.66,4.66,0,0,0-.28,1.89,4.66,4.66,0,0,0,.28,1.89,2.26,2.26,0,0,0,.61.17l-.74,1.49h2.12l.32-.73.31-.66Zm1.95-1.47h-1.95c-1,0-1,0-1.18-.11,0-.22,0-.37,0-.57s0-.35,0-.57c.21-.07.18-.11,1.18-.11h1.95Z"/><path class="cls-1" d="M23.81,3.79l.18,1-3.5-1.62L17,4.76l.18-1,3.32-2ZM20.49,7,26,9.87,23.51,7.34l-.08-.7L24,6.51l1.67-.37-.94-3.24L20.49,0,16.23,2.89l-.94,3.24L17,6.51l.59.13-.08.7L15,9.87Z"/><polygon class="cls-3" points="5.47 15.87 3.68 19.93 6.75 18.49 7.16 17.42 15.05 13.61 13.27 17.04 15 19.36 4.92 23.38 5.69 21.33 2.47 22.68 0 28.26 20.27 21.25 16.71 16 20.32 8.13 5.47 15.87"/><path class="cls-1" d="M35.32,21.38,24.51,16.76l.24,2.1,11.32,4.52Zm-11.07-7,10.22,4.69-.64-1.7L24,12.71ZM23,9.35l12,6.26.5.26.23.52,3.77,8.53L41,28.26l-20.27-7,0-10.49V8.13Z"/><path class="cls-1" d="M20.49,26.6l-7.26,2-.77.22,8,1.77,8-1.77-.77-.22Zm20.37,2.62L20.49,33,.13,29.22l20.37-6.67Z"/></g></g></svg>