<svg width="144" height="116" viewBox="0 0 144 116" fill="none" xmlns="http://www.w3.org/2000/svg">
<path d="M19.2156 55.7398L12.9148 70.0091L23.7195 64.9356L25.1268 61.1774L52.8668 47.8125L46.5993 59.8523L52.6691 67.9774L17.2856 82.1077L19.975 74.926L8.66335 79.6375L0 99.2562L71.2074 74.6481L58.6802 56.1998L71.3796 28.5499L19.2156 55.7398Z" fill="#C7442A"/>
<path d="M80.7868 32.8346L122.984 54.8297L124.73 55.7398L125.529 57.5504L138.756 87.5081L143.944 99.2562L72.7361 74.6481L72.5971 37.8181L72.5619 28.5499L80.7848 32.8366L80.7868 32.8346ZM85.1498 50.6663L121.054 67.1416L118.819 61.1755L84.4647 44.6259L85.1498 50.6663ZM124.037 75.1081L86.0815 58.8795L86.9173 66.2392L126.658 82.1096L124.035 75.11L124.037 75.1081Z" fill="#30424F"/>
<path d="M143.507 102.612L71.9728 116L0.44043 102.612L71.9728 79.2013L143.507 102.612ZM71.9728 93.4138L46.474 100.406L43.7611 101.169L71.9728 107.376L100.184 101.169L97.4715 100.406L71.9728 93.4138Z" fill="#30424F"/>
<path d="M71.9729 24.5064L91.2081 34.6808L82.5721 25.7806L82.2942 23.3084L84.3788 22.8465L90.2548 21.5409L86.9625 10.1666L71.9729 0L56.9853 10.1666L53.693 21.5409L59.5671 22.8465L61.6517 23.3084L61.3737 25.7806L52.7378 34.6808L71.971 24.5064H71.9729ZM83.6389 13.3199L84.2731 16.7121L71.971 11.02L59.6708 16.7121L60.305 13.3199L71.971 6.39866L83.6369 13.3199H83.6389Z" fill="#30424F"/>
</svg>
